/* XPM */
const static char *arrowrake[] = {
/* columns rows colors chars-per-pixel */
"26 23 82 1",
"  c #040404",
". c #040308",
"X c #090A05",
"o c #0A0B0A",
"O c #100F14",
"+ c #131314",
"@ c #16151A",
"# c  gray11",
"$ c #232323",
"% c #2B2C29",
"& c #2C2B31",
"* c #343434",
"= c #393A36",
"- c #3D3D3C",
"; c #494949",
": c #51524A",
"> c #505050",
", c #5F5F5F",
"< c #626262",
"1 c #6C6C6C",
"2 c #737373",
"3 c #7A7A7A",
"4 c #848483",
"5 c #878880",
"6 c #8A8B84",
"7 c #8B8B89",
"8 c #91928B",
"9 c #9A9C8F",
"0 c #959595",
"q c #9A9B94",
"w c #9C9C9A",
"e c #9C9BA0",
"r c #9FA194",
"t c #A1A29C",
"y c #ABAD9F",
"u c #A4A4A2",
"i c #ABACA3",
"p c #ABABAB",
"a c #A7A5B2",
"s c #ADABB6",
"d c #B2B5A4",
"f c #B3B5A9",
"g c #B7B9AE",
"h c #B2B2B2",
"j c #B7B8B0",
"k c #B8B7BC",
"l c #B9B9B4",
"z c #BABABB",
"x c #BEBDC3",
"c c #BFC1B3",
"v c #C2C3BC",
"b c #C7C9BC",
"n c #CACDBD",
"m c #C1C1C3",
"M c #C7C8C3",
"N c #C8C7CC",
"B c #CACCC3",
"V c #CBCBCA",
"C c #D0CFD4",
"Z c #D0D2C7",
"A c #D7D9CB",
"S c #DADDCC",
"D c #D7D7D5",
"F c #DCDCDA",
"G c #DEE1CC",
"H c #DEE0D4",
"J c none",
"K c none",
"L c none",
"P c none",
"I c none",
"U c none",
"Y c none",
"T c none",
"R c none",
"E c none",
"W c none",
"Q c none",
"! c none",
"~ c none",
"^ c none",
"/ c none",
/* pixels */
"PYYKPYUJUPURYU!IUUUUUUUUUU",
"YUY/TKURURPKTYITUUUUUUUUUU",
"YPPPIIYYUKTRJPYPUUUUUUYUUU",
"YPTYcqfYTRUURUGTUUUUUUUUUU",
"YPPYYFj6fK!KU~YPUUIUUUUUUU",
"PY~Fi8iVuwlIYKTYUUUUUUUUUU",
"UPIIIEVwphuwrB^KUUUUUUUUUU",
"PUUbq8pNxpp0=:ZWUUUUUUUUUU",
"UP!KEYDhuppw*>17HWWLIYYPUU",
"UPGy88wwhpp4$23-%6H^IY!TTI",
"PPTLQQFNhpp4&33;@o-qVcpiq7",
"!KBrrrupppp2$21,&O.o XooO ",
"KY~IQEVxzhk3$73;@.$<678685",
"TIAiruhxhpp2$3,;=2MQYI!!YI",
"IY~EEFmeppu2%230AY!IHYTJUU",
"YIFfqumNhpp1#sQE!IIYTYJUYY",
"UUUHECsazpuiyIUUUUUUUUUUUU",
"TJIBtlVkivIYGYPUUUUUUUUUUU",
"JY~~YgrVUY!TUTUPUUUUUUUUUU",
"~K!Adn!KUUJKUYYYUUUUUUUUUU",
"ILYYYUGTUYTUUUUYUUUUUUUUUU",
"IW!II!UYYYYUKUYUUUUUUUUUUU",
"IY!II!YEEW!!K/YUUUUUUUUUUU"
};
