/* XPM */
const static char *capture-on[] = {
/* columns rows colors chars-per-pixel */
"24 21 127 2",
"   c #F50100",
".  c #F60108",
"X  c #F60D09",
"o  c #FD0201",
"O  c #FE010B",
"+  c #FC0903",
"@  c #FE0C0A",
"#  c #FC0F17",
"$  c #FF1006",
"%  c #FB140E",
"&  c #F41011",
"*  c #FB1313",
"=  c #FF131A",
"-  c #FF1816",
";  c #FF181B",
":  c #F21C28",
">  c #F81D23",
",  c #FF1D28",
"<  c #F62217",
"1  c #F9221F",
"2  c #F42E23",
"3  c #F52A2E",
"4  c #FE2B26",
"5  c #FF2B2A",
"6  c #F72234",
"7  c #F72F32",
"8  c #FD2431",
"9  c #FD2B32",
"0  c #F33326",
"q  c #FF3228",
"w  c #FF3B2C",
"e  c #F63D3A",
"r  c #FD3434",
"t  c #FD353C",
"y  c #FD3B34",
"u  c #FD3B3C",
"i  c #FE3641",
"p  c #FD3A44",
"a  c #FC3C49",
"s  c #F74237",
"d  c #F7443D",
"f  c #F94137",
"g  c #FC403D",
"h  c #FF4444",
"j  c #FF4048",
"k  c #FF4D44",
"l  c #FD4B4A",
"z  c #FF4755",
"x  c #FC4D54",
"c  c #F95345",
"v  c #FF5155",
"b  c #FF605A",
"n  c #F86C5F",
"m  c #F76C6F",
"M  c #FF6567",
"N  c #FE6C63",
"B  c #FA6B68",
"V  c #FF6D73",
"C  c #FB716D",
"Z  c #FC7D6A",
"A  c #FA7274",
"S  c #FA7D7B",
"D  c #FC827C",
"F  c #FD8184",
"G  c #FF848A",
"H  c #FF8F83",
"J  c #FF8F8E",
"K  c #FF8B93",
"L  c #F2998B",
"P  c #F89083",
"I  c #FF938E",
"U  c #F59599",
"Y  c #FD9494",
"T  c #FF939D",
"R  c #FF8EA0",
"E  c #FFA199",
"W  c #FFAB9C",
"Q  c #FBBDA8",
"!  c #FCB2B3",
"~  c #F2CDBA",
"^  c #FDC0BB",
"/  c #DEECD2",
"(  c #DBEEDA",
")  c #DEF3DC",
"_  c #DEF0E0",
"`  c #F9D5C5",
"'  c #FFDBD1",
"]  c #E5E6C7",
"[  c #E4ECCD",
"{  c #E9EBCD",
"}  c #E5E7D9",
"|  c #E5ECD4",
" . c #E4ECDB",
".. c #EDE7D4",
"X. c #EBE6DB",
"o. c #EAEBD4",
"O. c #EAEBDA",
"+. c #E3F0CC",
"@. c #E4F0D4",
"#. c #E4F0DC",
"$. c #EDF2D4",
"%. c #ECF1DB",
"&. c #F7E7CD",
"*. c #F0E9CD",
"=. c #F4E7D3",
"-. c #F1E6D9",
";. c #F3EBD3",
":. c #F1E9DA",
">. c #FFE2DF",
",. c #F0F1CF",
"<. c #F2F1DD",
"1. c #F6FCD8",
"2. c #E4EDE4",
"3. c #E9E7EA",
"4. c #EAEBE2",
"5. c #E4F3E3",
"6. c #ECF4E5",
"7. c #E6FAF8",
"8. c #F5ECE2",
"9. c #F6ECEB",
"0. c #FEE5E1",
"q. c #FCE9E4",
"w. c #FBEBEC",
"e. c #F0EEF1",
"r. c #F3F3E3",
"t. c #F6FDF5",
"y. c #FBF4F2",
/* pixels */
"| .. .o.[ | O.| O.4.+...O.o. ...O.|  .O.O.#.| $.",
"O.o.O.| ) O.-.o...O.;.O./ ;.o.#.o...O.o.2.{ O.X.",
"2.:...:.8.| W :   b @. .#.} #.4.L ; X I O.&. .:.",
"O.O.} o.%.v O o O o O ' O.;.o.& o o + o # 6._ | ",
"O.[ 5.$.~   y y t p t ; ] %.t g p t f a O u O.%.",
"O. . .=.7 * p R >.Y e O O.O.o y I q.J f t o r. .",
"| 4.$. .O y u 9.v 9.y o 2.| . j w., ' a w   t.{ ",
"[ O.X.8.3 + w Y q.U u o o.o.o t Y q.T y 4 o e.#.",
"o.O.{ O.` O y a u u g ; O.:.j g y t d t O a ;. .",
"O.[  .#.%.S o   +   O 1.2./ 5.4 O o o o ; $.{ 4.",
"O.#.:.| 3.O.Z o o < ! :.6.y.7.y.9 o   l %.%...} ",
"O.:.a Q r.;.Y O o o # o 9 5 0 k x l 9 e  .[ 4.) ",
"O.o.N O O t 2 o   o o r E h l v c l Y k =.o.O. .",
"O.[ m o o     o O o O y H > r 7 9 6 K x 4.{ | o.",
"o.O.A O   o O 8 r 4 1 % B M B N n V x t O.o.X.o.",
"o.O.B o o o O B C B V o o o O o o o o q 5.2.$.} ",
"o.O.@ @.$. .z o @ O - o o   O o o o   9 O.O.@.O.",
"o.} O.4.} O.O.r.O.P O   O o   o o F 8.r. .o.@.} ",
"O.o.} o. ...O.O. .O.^ G D G G D D o.O.;.{ o.o.O.",
"@.O.o. .o.o.o.| o...@.o.o.o.| o.| O.O. .4.o.o.4.",
"@.O.o. .O.o.o.@. .O.o.o.o.| | o. .o.O. .4...@.4."
};
