/* XPM */
const static char *capture-off[] = {
/* columns rows colors chars-per-pixel */
"24 21 236 2",
"   c black",
".  c #000100",
"X  c #010100",
"o  c #010101",
"O  c #000002",
"+  c #010103",
"@  c #010200",
"#  c #020200",
"$  c #020300",
"%  c #030301",
"&  c #020202",
"*  c gray1",
"=  c #000004",
"-  c #000005",
";  c #010005",
":  c #010006",
">  c #020106",
",  c #020107",
"<  c #020204",
"1  c #030305",
"2  c #030207",
"3  c #040500",
"4  c #040402",
"5  c #040404",
"6  c gray2",
"7  c #040406",
"8  c #050507",
"9  c #060606",
"0  c #070707",
"q  c #03020A",
"w  c #040308",
"e  c #040309",
"r  c #050409",
"t  c #070709",
"y  c #080903",
"u  c #080806",
"i  c #090A04",
"p  c #0A0B05",
"a  c #0B0C06",
"s  c #0B0C07",
"d  c #0D0F04",
"f  c #090909",
"g  c gray4",
"h  c #0C0C0A",
"j  c #0D0E08",
"k  c gray5",
"l  c #11110F",
"z  c #13140C",
"x  c #14150D",
"c  c #111113",
"v  c #131313",
"b  c #151513",
"n  c #151611",
"m  c #161712",
"M  c gray8",
"N  c #151515",
"B  c #151517",
"V  c #161616",
"C  c gray9",
"Z  c #161618",
"A  c #171719",
"S  c #171812",
"D  c #1A1B15",
"F  c #1A1B16",
"G  c #1C1E11",
"H  c #1C1D17",
"J  c #191919",
"K  c #1B1B19",
"L  c #1D1E18",
"P  c #1E1E1E",
"I  c #1E2015",
"U  c #1F2018",
"Y  c #1F201B",
"T  c #22231D",
"R  c #24261B",
"E  c #232323",
"W  c #252523",
"Q  c #252620",
"!  c #262721",
"~  c gray14",
"^  c #252525",
"/  c #252527",
"(  c #272729",
")  c #272823",
"_  c #2A2B26",
"`  c #2A2A28",
"'  c #2A2A2A",
"]  c gray17",
"[  c #303129",
"{  c #32332E",
"}  c #303032",
"|  c #333331",
" . c gray20",
".. c #343530",
"X. c #353535",
"o. c #343436",
"O. c #353537",
"+. c #393937",
"@. c #3A3B35",
"#. c #3C3D35",
"$. c gray22",
"%. c #38383A",
"&. c #3A3A38",
"*. c #3C3C3A",
"=. c #41423C",
"-. c #43443C",
";. c gray25",
":. c #424240",
">. c #434341",
",. c #454641",
"<. c #444444",
"1. c #454547",
"2. c gray28",
"3. c #454449",
"4. c #474749",
"5. c #474840",
"6. c #4A4B45",
"7. c #484848",
"8. c #494949",
"9. c #4D4E48",
"0. c #50504E",
"q. c #53544C",
"w. c #595B4E",
"e. c #56555A",
"r. c #5F605A",
"t. c #606257",
"y. c #6A6B63",
"u. c #7A7A7C",
"i. c #7D7D7F",
"p. c #82837E",
"a. c #85877C",
"s. c #878785",
"d. c #878789",
"f. c #888886",
"g. c #8E8F87",
"h. c #898989",
"j. c #88888A",
"k. c #8B8B89",
"l. c gray54",
"z. c #8B8B8D",
"x. c #8C8C8E",
"c. c #97998B",
"v. c #9C9E91",
"b. c gray61",
"n. c #9C9C9E",
"m. c #A8AA9F",
"M. c #A9AAA5",
"N. c #AAABA5",
"B. c #ABADA0",
"V. c #ACADA5",
"C. c #ACADA7",
"Z. c #AEAEAE",
"A. c #AFAFB1",
"S. c #BBBCB4",
"D. c #BFC1B4",
"F. c #C3C5BA",
"G. c #C6C8BD",
"H. c #C8CABD",
"J. c #CBCDC0",
"K. c #CDCFC4",
"L. c #CFD2C1",
"P. c #CFD1C6",
"I. c #D1D3C5",
"U. c #D2D4C7",
"Y. c #D3D5CA",
"T. c #D8D9D1",
"R. c #D8D8D6",
"E. c #DBDDD0",
"W. c #DEDFD7",
"Q. c #DDDDDB",
"!. c #DDDED8",
"~. c #E6EACF",
"^. c #E2E4D6",
"/. c #E4E7D2",
"(. c #E4E7D4",
"). c #E4E7D6",
"_. c #E2E4D9",
"`. c #E4E6D8",
"'. c #E5E7D9",
"]. c #E5E8D3",
"[. c #E6EAD3",
"{. c #E7EBD2",
"}. c #E5E8D7",
"|. c #E6E9D4",
" X c #E6E9D6",
".X c #E7EAD5",
"XX c #E7EBD4",
"oX c #E7EAD7",
"OX c #E6E9D8",
"+X c #E6E8DA",
"@X c #E6E8DB",
"#X c #E7E9DB",
"$X c #E7EAD9",
"%X c #E6E8DD",
"&X c #E7E9DE",
"*X c #E8EBD6",
"=X c #E8ECD3",
"-X c #E9EED0",
";X c #E8ECD5",
":X c #E9ECD7",
">X c #E9EDD6",
",X c #EAEED5",
"<X c #EBEFD4",
"1X c #EAEED7",
"2X c #E8EBD8",
"3X c #E8EBDA",
"4X c #E8EADC",
"5X c #E9EBDD",
"6X c #E8EADF",
"7X c #E9EBDE",
"8X c #E9ECD9",
"9X c #E9ECDB",
"0X c #EAEDD8",
"qX c #EAEDDA",
"wX c #EBEED9",
"eX c #EBEEDB",
"rX c #EAEDDC",
"tX c #EAECDE",
"yX c #EBEDDF",
"uX c #EBEEDD",
"iX c #ECEFDA",
"pX c #ECEFDC",
"aX c #ECEFDE",
"sX c #EDF0DD",
"dX c #EDF0DF",
"fX c #EFF3DC",
"gX c #E9EBE0",
"hX c #E9EAE2",
"jX c #EBEDE0",
"kX c #EBEDE2",
"lX c #ECEEE0",
"zX c #EDEFE1",
"xX c #EDEEE6",
"cX c #EDEDEB",
"vX c #EEF1E0",
"bX c #EEF0E2",
/* pixels */
"9X9X<X<X XwXwX*X7X9X9X=X<X~.<X9X9X$X#XuX XwX*X<X",
"rX*X X<XuX7X`.aXkXrX(.wX].sX9X*X$X7XrX(.eX#X#XwX",
"9X9X.X9X$X_.q.d * [ v.uX7XyX$XF.5.y s -.H.yXeX X",
"<X].<X9X&X_ * * 1 * * y.xXhXM.s * * * * s K.$XeX",
"$XwX X$Xg.* * t * 1 * f Q.cXK * 1 1 t 1 * P rX$X",
"9X9X/.rXH f 1 1.j.1.4 * b.Z.* 5 1.d.3.t c * H.9X",
"9X XsX^.* * 1 j.n j.* * u.z.* * j.n z.1 4 * B.aX",
"eX*X<XrXH 4 1 1.s.2.* * n.Z.* * ,.s.3.* * * H.7X",
"<X#X7XrXc.* * q 4 * * s `.9XI E 5 * e q * G rXrX",
"<XwX#XeX^.w.* 1 * * * M.aXrXT.A * 1 * * y E.$X$X",
"9X^.#X9X9X#X#.* * c e.R.K.U.Q.i.n * * ! W.9X9X<X",
"<XrXR a.Y.&X6.* * 1 1 * S z S ^ _ ~ A P 7X9X<X9X",
"rX&X{ * * S c * * * * C 0.) _ ( ~ ' 7.T uX X].wX",
"$XkX&.* * * * * * * * P 8.k C C v A 7.! 7X<XfX/.",
"<XrX{ * * * * A C c l f  . .X.| O.} ] n 7X<X*XwX",
"{. X+.* * * * | O.+.X.* 1 * * * 1 1 * D 7X#X*X#X",
"9X7X1 p.U.9XR 1 * 4 h * * * * * * * * z rX#X9X<X",
"~.9XkX`.9X].L.C.F.e.* * * * 1 1 * ;.C.D.#X*X9X*X",
"1X<X<X<X9X<X*X9X#XI.t.=.;.;.<.;.=.m.`.9X#XuX].9X",
"rX#X9X X9XrX9X*X<X9X9X9X#X9X<X X$XrXuX9X<X<X#X<X",
"7X*XwX*X9X7X9X*X9X9X9X9X9X#X*X<X7XrXrX<X X<X#X*X"
};
