/* XPM */
const static char *cube[] = {
/* columns rows colors chars-per-pixel */
"24 21 121 2",
"   c black",
".  c black",
"X  c black",
"o  c black",
"O  c black",
"+  c black",
"@  c black",
"#  c black",
"$  c black",
"%  c black",
"&  c black",
"*  c black",
"=  c black",
"-  c black",
";  c black",
":  c black",
">  c black",
",  c black",
"<  c black",
"1  c black",
"2  c black",
"3  c black",
"4  c black",
"5  c black",
"6  c black",
"7  c black",
"8  c black",
"9  c black",
"0  c black",
"q  c black",
"w  c black",
"e  c black",
"r  c black",
"t  c black",
"y  c black",
"u  c black",
"i  c black",
"p  c black",
"a  c black",
"s  c black",
"d  c black",
"f  c black",
"g  c black",
"h  c black",
"j  c black",
"k  c black",
"l  c black",
"z  c black",
"x  c black",
"c  c black",
"v  c black",
"b  c black",
"n  c black",
"m  c black",
"M  c black",
"N  c black",
"B  c black",
"V  c black",
"C  c none",
"Z  c none",
"A  c none",
"S  c none",
"D  c none",
"F  c none",
"G  c none",
"H  c none",
"J  c none",
"K  c none",
"L  c none",
"P  c none",
"I  c none",
"U  c none",
"Y  c none",
"T  c none",
"R  c none",
"E  c none",
"W  c none",
"Q  c none",
"!  c none",
"~  c none",
"^  c none",
"/  c none",
"(  c none",
")  c none",
"_  c none",
"`  c none",
"'  c none",
"]  c none",
"[  c none",
"{  c none",
"}  c none",
"|  c none",
" . c none",
".. c none",
"X. c none",
"o. c none",
"O. c none",
"+. c none",
"@. c none",
"#. c none",
"$. c none",
"%. c none",
"&. c none",
"*. c none",
"=. c none",
"-. c none",
";. c none",
":. c none",
">. c none",
",. c none",
"<. c none",
"1. c none",
"2. c none",
"3. c none",
"4. c none",
"5. c none",
"6. c none",
"7. c none",
"8. c none",
"9. c none",
"0. c none",
/* pixels */
") I +.+.I +.) L I 5.I +.+.T 4.I +.T ) ) L ) I { ",
"I 4.I +.+.+.I +.{ W +.+.+.{ +.{ +.{ +.) L ) 5.W ",
"{ ~ ) A +.+.| 6.5.) L ) ) ) I #.*.{ { W 5.+.I +.",
"~ +.K 5.) W 9.5 V t w q b n q % + g . +.I I +.) ",
"*.+.+.K ~ {   x *.{ W { { { *.| 0.+ o { I 5.) +.",
"{ ~ +.~ { : - 5 5 2 e - 2 5 2 5 5 6.$ +.~ K T ) ",
"{ +.I { | z | | +.+.I W +.+.{ +.$ *.g 4.W +.) ) ",
"+.+.:.| | , { *.+.I +.+.I +.I #.- ! ; W +.R +.+.",
"T [ W +.>.a #.W ~ +.{ +.+.+.~ { 1 4.1 #.I +.[ T ",
"T +.+.+.) a +.I +.~ { ~ +.~ +.{ 4 T 4 W ) I 4.) ",
"I { =.+.J r I +.~ +.+.+.{ { +.+.5 I e W 5.+.W T ",
") =.{ +.L u I +.{ { +.~ +.~ +.~ 5 ) x +.Z 5.+.T ",
"+.) I +.>.a 5.+.~ +.{ { +.+.~ { 2 +.4 +.+.Z { T ",
") +.W +.) i I ) +.+.+.~ +.~ +.{ 4 #.1 +.) 5.{ #.",
"I +.{ =.K 4 I +.~ { ~ +.{ { +.+.1 ) p S 5.Z [ T ",
"+.+.[ +.) i ) { +.{ +.+.+.~ +.~ 4 B e +.) I =.) ",
") +.+.W 3.l ! { +.W [ { { { +.[ 1 X ! +.L #.T +.",
"J >.K #.W k N 5 # h N + q n 5 h b *.! 4.+.I +.+.",
"W { W +.+.+.I ) +.+.I +.4.+.{ +.{ [ #.S =.I +.+.",
") >.) +.I +.=.{ ) ) +.T I +.) +.) ) +.+.{ { I +.",
") ) I +.[ +.+.+.) T +.) T ) ) ) L T ) +.{ =.+.+."
};
