/* XPM */
const static char *eye[] = {
/* columns rows colors chars-per-pixel */
"24 21 73 1",
"  c #060606",
". c #0C0C0C",
"X c #131313",
"o c #1B1B1B",
"O c gray14",
"+ c #2D2D2D",
"@ c #343530",
"# c #3C3C3C",
"$ c #444444",
"% c #4B4B4C",
"& c #4F4E53",
"* c #51514F",
"= c #535351",
"- c #585954",
"; c #5B5B5B",
": c #60605E",
"> c #626163",
", c #6A6B66",
"< c #6B6B6B",
"1 c #727271",
"2 c #747378",
"3 c #7C7C7C",
"4 c #7F7F81",
"5 c #807F84",
"6 c #838483",
"7 c #858489",
"8 c #898987",
"9 c #8B8B8B",
"0 c #8E8E90",
"q c #91928C",
"w c #939494",
"e c #969699",
"r c #9B9B9B",
"t c #A0A09E",
"y c #A3A3A3",
"u c #A7A7A9",
"i c #A8A8A6",
"p c #ACACAB",
"a c #AEADB2",
"s c #B0B0AE",
"d c #B4B4B4",
"f c #B6B6B8",
"g c #B8B9B5",
"h c #BBBBBB",
"j c #C3C4BF",
"k c #C4C4C4",
"l c #C6C6C8",
"z c #CBCCC7",
"x c #CBCBCB",
"c c #CCCBD0",
"v c #D0D1CD",
"b c #D3D3D3",
"n c #D5D4D9",
"m c #D9DAD6",
"M c #DCDCDB",
"N c #DFDFE1",
"B c none",
"V c none",
"C c none",
"Z c none",
"A c none",
"S c none",
"D c none",
"F c none",
"G c none",
"H c none",
"J c none",
"K c none",
"L c none",
"P c none",
"I c #F2F4E7",
"U c #F0F1E9",
"Y c #F1F1F1",
/* pixels */
"AAAAASSLKKKKKKYGKSASAAAS",
"SSAASSJKKGVMMMNGHPJSAACS",
"AZASLKJGFMblhhhkbNJSSSSS",
"SAAJJKGGKGFbhutyajbJSSSA",
"ASJKKKGKYYYGbhy90tgJCICS",
"CJKKGFFGYYYKNxpw68rjSSSS",
"SJJGFNMmbnlfie96430iNZUS",
"SJJFnkuq3<%@$%$%;<3rhMJJ",
"KVbge6<&#O#%oo$$*;19anKJ",
"Kmp3,-#&:X6rX #1=*,9pcVI",
"Kz7>*@*i1XXX .+w8::4ycNK",
"Gg2>:;9h-XX.Xo+9t415elFJ",
"Kj94tsis>ooooO$ee88rplHS",
"Lmkapjvlp<+oo@<rurrflnJJ",
"JHMxdukMYVfw79phlkjkbGUS",
"SSGbhyrdkcFVxhhhgpphbGJJ",
"ASJSbguutrreweewerpBSAAA",
"AASJFbhiteew999wrgxSSASA",
"SACSIJVvhpyttishlMSACAAS",
"SASACSJJSVmvvbnVJJJZSACA",
"SSASCSJSJHKGKKHKJJSCSASS"
};
