/* XPM */
static const char *fileopen[] = {
/* columns rows colors chars-per-pixel */
"24 23 50 1",
"  c black",
". c #000400",
"X c gray3",
"o c #080C08",
"O c #101410",
"+ c #181C18",
"@ c #313000",
"# c #313400",
"$ c #393800",
"% c #393C00",
"& c #212021",
"* c #212421",
"= c #292829",
"- c #292C29",
"; c #313431",
": c #393C39",
"> c #424100",
", c #424500",
"< c #4A4900",
"1 c #4A4D00",
"2 c #525100",
"3 c #525500",
"4 c #5A5D00",
"5 c #636100",
"6 c #636500",
"7 c #6B6900",
"8 c #6B6D00",
"9 c #737100",
"0 c #737500",
"q c #7B7900",
"w c #424142",
"e c #424542",
"r c gray38",
"t c #C6C342",
"y c #D6D74A",
"u c #E7E74A",
"i c #E7E752",
"p c #C6C763",
"a c #D6D36B",
"s c #EFEB73",
"d c #F7F37B",
"f c #F7F77B",
"g c #F7F784",
"h c #F7F78C",
"j c #F7F794",
"k c #F7F79C",
"l c #D6D3CE",
"z c #E6E4E1",
"x c #EFEEEC",
"c c #F5F5F3",
/* pixels */
"xzzzzzzzzzzzzzzzzzzzzzzx",
"zllllllllllllllllllllllz",
"zllllllllllllllO. lllllz",
"zlllllllllllll  l  llllz",
"zllllllllllll  lll  ll z",
"zllllllllllllllllllll  z",
"zlll:*Xlllllllllllll   z",
"zllekhg lllllllllll    z",
"zlwkjgf XO&**+X lllllllz",
"zl;jhgffgghhhgfa llllllz",
"zl-hggfffgggggsp llllllz",
"zl=hgffiiiiiiuyt llllllz",
"zl=hgffuu         .o   r",
"zl=hgfuu qqqqq00000841 z",
"zl=hgfu qqqqqqq00962> lz",
"zl*hgi qqqqqqqq0851$ llz",
"zl+gi 00000000974<# lllz",
"zlod 66666666653,# llllz",
"zl  31<<<<<<<<,%@ lllllz",
"zll              llllllz",
"zllllllllllllllllllllllz",
"zllllllllllllllllllllllz",
"cxxxxxxxxxxxxxxxxxxxxxxc"
};
