/* XPM */
const static char *home[] = {
/* columns rows colors chars-per-pixel */
"24 21 163 2",
"   c black",
".  c #000100",
"X  c #010100",
"o  c #010101",
"O  c #000002",
"+  c #000200",
"@  c #010200",
"#  c #010300",
"$  c #020300",
"%  c #000004",
"&  c #020106",
"*  c #030207",
"=  c #030400",
"-  c #050601",
";  c #6B6A70",
":  c #92938B",
">  c #92938D",
",  c #96978F",
"<  c #96988D",
"1  c #989A8F",
"2  c #9A9C8E",
"3  c #939393",
"4  c #959690",
"5  c #969791",
"6  c #969792",
"7  c #959595",
"8  c #959597",
"9  c #969694",
"0  c #979795",
"q  c #949399",
"w  c #97969C",
"e  c #979892",
"r  c #979893",
"t  c #989896",
"y  c #9A9B96",
"u  c #9B9C96",
"i  c #989898",
"p  c gray",
"a  c #BEBEC0",
"s  c #C0C1B9",
"d  c #C1C1BF",
"f  c #C4C6B8",
"g  c #C1C1C1",
"h  c #C2C2C0",
"j  c #C3C3C3",
"k  c #C2C2C4",
"l  c #C5C5C5",
"z  c #C7C7C5",
"x  c none",
"c  c none",
"v  c none",
"b  c none",
"n  c none",
"m  c none",
"M  c none",
"N  c none",
"B  c none",
"V  c none",
"C  c none",
"Z  c none",
"A  c none",
"S  c none",
"D  c none",
"F  c none",
"G  c none",
"H  c none",
"J  c none",
"K  c none",
"L  c none",
"P  c none",
"I  c none",
"U  c none",
"Y  c none",
"T  c none",
"R  c none",
"E  c none",
"W  c none",
"Q  c none",
"!  c none",
"~  c none",
"^  c none",
"/  c none",
"(  c none",
")  c none",
"_  c none",
"`  c none",
"'  c none",
"]  c none",
"[  c none",
"{  c none",
"}  c none",
"|  c none",
" . c none",
".. c none",
"X. c none",
"o. c none",
"O. c none",
"+. c none",
"@. c none",
"#. c none",
"$. c none",
"%. c none",
"&. c none",
"*. c none",
"=. c none",
"-. c none",
";. c none",
":. c none",
">. c none",
",. c none",
"<. c none",
"1. c none",
"2. c none",
"3. c none",
"4. c none",
"5. c none",
"6. c none",
"7. c none",
"8. c none",
"9. c none",
"0. c none",
"q. c none",
"w. c none",
"e. c none",
"r. c none",
"t. c none",
"y. c none",
"u. c none",
"i. c none",
"p. c none",
"a. c none",
"s. c none",
"d. c none",
"f. c none",
"g. c #F0EFF4",
"h. c #F0F3E2",
"j. c #F3F6E3",
"k. c #F0F1EB",
"l. c #F1F1EF",
"z. c #F1F2ED",
"x. c #F2F3EE",
"c. c #F3F4EF",
"v. c #F0F0F2",
"b. c #F1F1F3",
"n. c #F3F3F3",
"m. c #F2F1F6",
"M. c #F3F3F5",
"N. c #F4F4F2",
"B. c #F4F4F4",
"V. c #F4F4F6",
"C. c #F4F3F8",
"Z. c #F6F6F8",
"A. c #FBFBFB",
"S. c #FCFBFF",
"D. c #FCFCFA",
"F. c #FDFDFB",
"G. c #FDFEF9",
"H. c #FFFFF8",
"J. c #FFFFFB",
"K. c #FEFEFC",
"L. c #FFFFFD",
"P. c #FFFEFF",
"I. c gray100",
/* pixels */
"+.G E *.G +.D ~ &.~ ~ ) ~ >.D ! E D D D ~ _ G +.",
"G *.~ E D +.G +.E +.,.G +.G +.I } *.S ~ +.&.+.,.",
"E ~ c ~ +.~ E G G ~ B &.~ :.:.V t._ +.+.G +.+.G ",
"+.E ~ +.+.G +.&.x y.y.< # ~ n y 7 # _ _ I I +.~ ",
"D G *.E G +.+.G +._ q l.&.# &.8 4.- } +.+.+.G ! ",
"+.+.+.G +.I I &._ t l.# # T # 4 9.# %.I ~  .~ ~ ",
"D E G +._ I h.v 4 l.* p z # T # 9.# } D ! +.G +.",
"~ ~ E +._ &.v 2 n.# d P.S.g # } # # I +.+.G +.~ ",
"G ~ D +._ T t m.# k P.G.c.n.p * t.# t.~ &.I ~ ~ ",
"+.+.G E &.< n.# l A.P.V.n.n.4.g # a.# ~ +.G <.G ",
"+.G +.D &., # k S.P.V.f.C.4.d.m f # # D I &.~ G ",
"+.~ D ~ _ } < P.P.n.3 7 i # 4.6.I # y.) +.+.D +.",
"+.c +.G E } 4 P.P.d.u G.e.# w.9.+.# T D +.I :.G ",
"+.c ~ ,.~ t.4 P.C.a.: t.s # 6.9.I # %.~ +.I D +.",
"b j.D G E %.: G.B m 6 g 7 # B } &.# &.S +.I +.G ",
"&.c +.~ &.&.4 u._ } 7 w ; # } _ G # I ) c +.D +.",
"+.G :.! +.I # # # # # # # # # # # # I ~ D ) E &.",
"I &.G :.G &.} } !  .I _ E I I G } } &.E +.G +.+.",
"G :.G G +.+.G &. . . . ._ +._ +._ G +.+.+.G ~ G ",
") G &.+.G ~ ! ! ! ) ! ! +.~ ~ ~ E E _ _ +.+.G ~ ",
"~ G +.+.I ~ ~ W ~ Q ! ) ~ ) ~ ~ W ~ ~ I +.+.D ! "
};
