/* XPM */
static const char *isoline[] = {
/* columns rows colors chars-per-pixel */
"24 21 20 1 ",
"  c black",
". c #E4E8CF",
"X c #E3E6D1",
"o c #E5E8D5",
"O c #E7EBD4",
"+ c #E7EAD5",
"@ c #E9EDD4",
"# c #E4E6D8",
"$ c #E6E8DA",
"% c #E8EBDA",
"& c #E9ECD9",
"* c #E9ECDB",
"= c #ECEFDA",
"- c #E8EADC",
"; c #EAECDE",
": c #ECEFDC",
"> c #ECF0D9",
", c #EEF1DE",
"< c #EFF2DF",
"1 c #E5E6E0",
/* pixels */
"&&&&&&&&@@&&&:&&%&.>+*&&",
"&&&&&&&&&&&&&&--*+@@&*%+",
"&&&&&&         >-:+@&#+@",
"&&&&&  &&&&&&&   &&@&%<+",
"&&&&  &&&&&&&&&&&  &+,o,",
"&&&& &&&&&&&&&&&&&   %:+",
"&&&  &&&&&&&&&&&&&&&  &@",
"&&& &&&&&     &&&&&&&  +",
"&&  &&&&  &&&   &&&&&&  ",
",& &&&&& &&&&&&   &&X&@:",
"&* +&&&  &&&&&&&&  %&&&&",
"%+ &&&& &&&&&&&&&& +&&:&",
"%% &&&&  &&&&&&&&  :&%+&",
"+% ,&&&&  &&&&&&& &&@%<&",
"&&  &&&&&         %@%,@+",
"&&&  &&&&&&#&&%&&+&%%+&&",
"&&&@   &&1&&@&+&&&&&&&  ",
"&+&%%%   &&&&&>@&&&    &",
"&&&+&%&&   &&&&&    &&&&",
"@@%:*:+&&+       &&&&&&&",
"@+&:%&+&*+%%-**@&&&&&&&&"
};
