/* XPM */
const static char *lightbulb[] = {
/* columns rows colors chars-per-pixel */
"24 21 137 2",
"   c #000100",
".  c #010200",
"X  c #020200",
"o  c #020300",
"O  c #030301",
"+  c #030305",
"@  c #030400",
"#  c #040500",
"$  c #040402",
"%  c #040600",
"&  c #050600",
"*  c #050601",
"=  c #060700",
"-  c #060701",
";  c #060702",
":  c #040406",
">  c #070707",
",  c #050409",
"<  c #070709",
"1  c #070800",
"2  c #08070C",
"3  c #080903",
"4  c #090B00",
"5  c #0A0B03",
"6  c #090A05",
"7  c #0A0B06",
"8  c gray3",
"9  c #0B0B09",
"0  c #0B0B0B",
"q  c #0D0E08",
"w  c #0C0C0C",
"e  c #0F0F0D",
"r  c #0F100B",
"t  c #101109",
"y  c #10110B",
"u  c #11110F",
"i  c #13140C",
"p  c #121210",
"a  c gray7",
"s  c #141510",
"d  c #161712",
"f  c #151515",
"g  c #161616",
"h  c #21221C",
"j  c #21221D",
"k  c #2D2E28",
"l  c #2F302B",
"z  c #DDDCE2",
"x  c #E2E5D2",
"c  c #E3E7D0",
"v  c #E2E5D4",
"b  c #E3E5D7",
"n  c #E4E7D4",
"m  c #E4E6D8",
"M  c #E4E8D1",
"N  c #E5E8D3",
"B  c #E6EAD1",
"V  c #E6EAD3",
"C  c #E5E8D5",
"Z  c #E5E8D7",
"A  c #E6E9D4",
"S  c #E6E9D6",
"D  c #E7EAD5",
"F  c #E7EBD4",
"G  c #E7EAD7",
"H  c #E6E9D8",
"J  c #E6E8DA",
"K  c #E7E9DB",
"L  c #E7EAD9",
"P  c #E7E9DC",
"I  c #E7E9DE",
"U  c #E8EBD6",
"Y  c #E8ECD3",
"T  c #E8ECD5",
"R  c #E9ECD7",
"E  c #E9EDD6",
"W  c #EAEED7",
"Q  c #E8EBD8",
"!  c #E8EBDA",
"~  c #E8EADC",
"^  c #E8EADD",
"/  c #E9EBDD",
"(  c #E9EBDE",
")  c #E9ECD9",
"_  c #E9ECDB",
"`  c #EAEDD8",
"'  c #EAEDDA",
"]  c #EBEED9",
"[  c #EBEFD8",
"{  c #EBEEDB",
"}  c #EAEDDC",
"|  c #EAECDE",
" . c #EAECDF",
".. c #EBEEDD",
"X. c #ECEFDA",
"o. c #ECEFDC",
"O. c #ECEFDE",
"+. c #ECF0D7",
"@. c #ECF0D9",
"#. c #EDF0DB",
"$. c #EDF1DA",
"%. c #EDF0DD",
"&. c #EEF1DC",
"*. c #EEF1DE",
"=. c #E1E0E5",
"-. c #E1E0E6",
";. c #E5E4E9",
":. c #E8E9E1",
">. c #EBEDE2",
",. c #EBECE4",
"<. c #ECEEE0",
"1. c #EDEFE1",
"2. c #EDEEE6",
"3. c #F0F3E0",
"4. c #F1F1F1",
"5. c #F3F3F3",
"6. c #F4F4F6",
"7. c #F6F6F8",
"8. c #F7F6FC",
"9. c #FBFBF9",
"0. c gray98",
"q. c #FBFBFD",
"w. c #FBFAFF",
"e. c #FDFEF9",
"r. c #FFFFFB",
"t. c gray99",
"y. c #FDFDFD",
"u. c #FCFCFE",
"i. c #FDFCFF",
"p. c #FDFDFF",
"a. c #FEFDFF",
"s. c #FEFEFC",
"d. c #FFFFFD",
"f. c #FEFEFE",
"g. c #FEFEFF",
"h. c #FFFEFF",
"j. c gray100",
/* pixels */
"U ` D ! ! L ` ` ! L ` ` D D ! ! ` X.D ! ! ` ` ` ",
"` D ` ! ` ` R D R o.X.D ` ` ` R [ n *.` ` ! +.U ",
"! D ` X.F ` D ` R ! ! <.P L ! U R R n U ` ` x ..",
"! ` D U Y R R R ! ! 1 j ; i ! ! R U U +.D ` ` ! ",
"` ` R +.n W o.L o q g g.g.a j o ! ` o.n U U X.! ",
"` ! R n +.` P % 9 g.g.g.8.g.g.e 5 m ` U X.U D ` ",
"D D ` R ! b ,.q g.g.g.g.g.g.q.g.k 2.P ` X.n U ! ",
"! ` n X.L <.; e g.g.r.r.r.9.g.g.# ; P ! D +.U ` ",
"X.U X.n X.P 6 g.r.9.g.g.g.g.r.r.g.6 ! ` ! U ! U ",
"U o.v o.U P q q.r.g.g.g.0.g.g.0.q.o 1.D ` ` X.U ",
"U U ` U U ..; g g.g.g.g.g.g.g.g.a ; ! D X.U D R ",
"X.! X.! U ! >.o g.g.g.r.r.g.g.g.; P ..D ! ..! ! ",
"U U ! U +.U P o < g.g.g.g.r.g.+ % P D +.! D X.U ",
"n o.! ..Y R ` 1.a o 8 w 9 > o u 1.U X.c ..P X.! ",
"X.D ! X.R B o.v :.3 5.7.5.5.i ,.! U [ U U ..U U ",
"X.U ! ! +.Y U ! ! 5 o 2 , o i I X.R Y X.` ! ` ! ",
"! ! ! ` ! ` ! ` P # ;.z -.-.i P X.! ! ` ! ` ! ` ",
"! ! ` ! ` ! ` ! R l + d o 8 o ! ` ! ` ! ` ! ` ! ",
"R ` ! ` ! ` ! ` P X.D ; ; ! B ..! ` ! ` ! ` ! ` ",
"` ! ` ! ` ! ` ! U R ` P ! ! +.U ` ! ` ! ` ! ` ! ",
"` ! ` ! ! ` ! ` U R R ..! U X.U ` ! ` ! ! ` ! ` "
};
