/* XPM */
const static char *pauseimage[] = {
/* columns rows colors chars-per-pixel */
"24 21 38 1",
"  c black",
". c black",
"X c black",
"o c black",
"O c black",
"+ c black",
"@ c black",
"# c black",
"$ c black",
"% c black",
"& c black",
"* c black",
"= c none",
"- c none",
"; c none",
": c none",
"> c none",
", c none",
"< c none",
"1 c none",
"2 c none",
"3 c none",
"4 c none",
"5 c none",
"6 c none",
"7 c none",
"8 c none",
"9 c none",
"0 c none",
"q c none",
"w c none",
"e c none",
"r c none",
"t c none",
"y c none",
"u c none",
"i c none",
"p c none",
/* pixels */
"qqqqqqqq03:33:31qqqqqqqq",
"qqqqqqqqu88uu88uqqqqqqqq",
"qqqqqqqq=iq-;i3=qqqqqqqq",
"qqqqqqqq3u8ru8q3qqqqqqqq",
"qqqqqqqqi8u;;u8iqqqqqqqq",
"qqqqqqqq8u8ii8pwqqqqqqqq",
"qqqqqqqq+*+w8+*+qqqqqqqq",
"qqqqqqqq$*+wq+*$qqqqqqqq",
"qqqqqqqq+++qq$++qqqqqqqq",
"qqqqqqqq+++-q+++qqqqqqqq",
"qqqqqqqqXXX33XXXqqqqqqqq",
"qqqqqqqqXXX:-XXXqqqqqqqq",
"qqqqqqqqXXX-:XXXqqqqqqqq",
"qqqqqqqqXXX3:XXXqqqqqqqq",
"qqqqqqqqXX+q3+XXqqqqqqqq",
"qqqqqqq0XX+q-+XXqqqqqqqq",
"qqqqqqqqqqqqqqqqqqqqqqqq",
"qqqqqqqqqqqqqqqqqqqqqqqq",
"qqqqqqqqqqqqqqqqqqqqqqqq",
"qqqqqqqqqqqqqqqqqqqqqqqq",
"qqqqqqqqqqqqqqqqqqqqqqqq"
};
