/* XPM */
const static char *planes[] = {
/* columns rows colors chars-per-pixel */
"24 21 175 2",
"   c #292A22",
".  c #282826",
"X  c #2C2E20",
"o  c #2C2E23",
"O  c gray16",
"+  c #2F3028",
"@  c #313325",
"#  c #30312B",
"$  c #33342C",
"%  c #383A2F",
"&  c #3A3B35",
"*  c #3D3F32",
"=  c #42433B",
"-  c #41413F",
";  c #42433E",
":  c #43443C",
">  c gray25",
",  c #414141",
"<  c #434247",
"1  c #454543",
"2  c #454640",
"3  c #494A44",
"4  c #4B4D42",
"5  c #4B4C46",
"6  c #4B4C47",
"7  c #4C4D45",
"8  c #4D4F44",
"9  c #4D4E46",
"0  c #4E4F47",
"q  c #4D4E49",
"w  c #4E4F49",
"e  c #4E4F4A",
"r  c #4F4F4D",
"t  c gray31",
"y  c #4F5143",
"u  c #4F5048",
"i  c #4F504A",
"p  c #4F504B",
"a  c #505245",
"s  c #505247",
"d  c #515346",
"f  c #50514B",
"g  c #51524A",
"h  c #52534B",
"j  c #50514C",
"k  c #50504E",
"l  c #52534D",
"z  c #53544C",
"x  c #56584D",
"c  c #595B4D",
"v  c #585A4F",
"b  c #5A5C4F",
"n  c #505050",
"m  c #575852",
"M  c #585951",
"N  c #595A52",
"B  c #5A5B53",
"V  c #595A54",
"C  c #595A55",
"Z  c #5A5B56",
"A  c #5B5D50",
"S  c #5B5D52",
"D  c #5B5C54",
"F  c #5B5C56",
"G  c #5C5D55",
"H  c #5C5D57",
"J  c #5A5A5C",
"K  c #5C5D58",
"L  c #5E5F5A",
"P  c #5E5E5C",
"I  c #5E6053",
"U  c #6F6F6F",
"Y  c gray44",
"T  c #717171",
"R  c #707072",
"E  c #727270",
"W  c #727272",
"Q  c gray45",
"!  c #727274",
"~  c #737375",
"^  c #737277",
"/  c #747570",
"(  c #767772",
")  c #747474",
"_  c #747476",
"`  c #757577",
"'  c #737278",
"]  c #8B8B89",
"[  c #8C8C8A",
"{  c #8D8D8B",
"}  c #8D8E88",
"|  c #8D8D8D",
" . c #8D8D8F",
".. c #8E8E8C",
"X. c #8F8F8D",
"o. c #8E8E90",
"O. c #8F8F91",
"+. c #90908E",
"@. c #91918F",
"#. c #929290",
"$. c #919096",
"%. c #929294",
"&. c #B8BAAD",
"*. c #B9BBAD",
"=. c #B8BAAF",
"-. c #B9BCAB",
";. c #BABCAE",
":. c #B6B7B1",
">. c #B7B8B0",
",. c #B8B9B3",
"<. c #B9BBB0",
"1. c #B9BAB2",
"2. c #BABBB3",
"3. c #B9BAB4",
"4. c #BABCB1",
"5. c #BBBCB6",
"6. c #E4E7D4",
"7. c #E4E6D9",
"8. c #E5E7D9",
"9. c #E5E9D2",
"0. c #E7EBD0",
"q. c #E6EAD3",
"w. c #E7EBD2",
"e. c #E5E8D5",
"r. c #E5E8D7",
"t. c #E6E9D4",
"y. c #E6E9D6",
"u. c #E7EAD5",
"i. c #E7EBD4",
"p. c #E7EAD7",
"a. c #E6E9D8",
"s. c #E6E8DA",
"d. c #E7EAD9",
"f. c #E7E9DC",
"g. c #E7E9DE",
"h. c #E8EBD6",
"j. c #E8ECD3",
"k. c #E8ECD5",
"l. c #E9EDD4",
"z. c #E9ECD7",
"x. c #E9EDD6",
"c. c #EAEED5",
"v. c #EBEFD4",
"b. c #EAEED7",
"n. c #EBEFD6",
"m. c #E8EBD8",
"M. c #E8EBDA",
"N. c #E8EADC",
"B. c #E9EBDD",
"V. c #E9EBDE",
"C. c #E9ECD9",
"Z. c #E9ECDB",
"A. c #EAEDD8",
"S. c #EAEDDA",
"D. c #EBEED9",
"F. c #EBEFD8",
"G. c #EBEEDB",
"H. c #EAEDDC",
"J. c #EAECDE",
"K. c #EAECDF",
"L. c #EBEEDD",
"P. c #ECEFDA",
"I. c #ECEFDC",
"U. c #ECEFDE",
"Y. c #ECF0D5",
"T. c #ECF0D7",
"R. c #ECF0D9",
"E. c #EDF0DB",
"W. c #EFF3DC",
"Q. c #E9EBE0",
"!. c #E9EAE2",
"~. c #EBEDE0",
"^. c #ECEEE0",
"/. c #EEF1E0",
"(. c #EFF2E1",
/* pixels */
"G.x.x.h.h.h.P.h.h.x.!.P.0.U.h.M.p.G.h.G.x.9.x.h.",
"p.G.G.h.x.6.h.m.G.p.m.9.9.U.P.M.G.6.U.p.x.P.9.G.",
"h.9.h.h.p.U.G.M.% n.P.h.U.& p.m.m.U.* !.x.p.W.p.",
"G.G.G.h.p.G.g.B 1 9.G.m.m - x.m.g.x = U.G.9.9.G.",
"G.6.p.P.P.G.7 ( - n.p.a #., h.M.g 4.: 7.P.P.x.p.",
"p.m.P.p.7.4 ( E r x.y } o.e P.7 >.>.h G.G.x.h.p.",
"U.p.p.P.m.z E ' P 9.g  .%.B x.k ;.*.x !.p.x.G.G.",
"m.G.h.h.M.F Y ' C P.C $.o.b x.J -.*.b G.G.9.G.m.",
"G.p.G.9.G.F ! ( H G.C +.} K m.H *.2.C m.x.m.m.m.",
"9.G.G.x.p.k Y Q 7 G.k #. .e h.g *.:.k p.x.G.G.p.",
"9.G.m.G.m.e ! ' 7 G.e ] #.e m.a *.2.e m.x.G.m.x.",
"x.G.m.x.P.m ) ! 7 P.K +.+.5 G.H *.5.6 G.p.h.G.p.",
"x.G.G.p.G.B ! ! - G.C X.X.- G.B *.2.2 p.h.G.M.h.",
"x.p.G.p.m.H ! E 7 G.C X.#.e G.B *.2.5 m.h.G.G.h.",
"G.p.p.9.G.C ) Q g G.K X.} e p.B ;.5.e G.h.p.m.G.",
"x.G.G.x.m.e E Q 7 G.e #.X.e G.7 ;.>.e p.x.G.U.m.",
"p.G.9.x.m.n ' Q I p.e O. .K h.e >.4.x G.G.p.x.x.",
"p.G.G.x.G.- U h p.G.< O.8 G.P., 4.d M.p.p.h.G.h.",
"m.G.p.9.G.  $ p.G.p.O + G.x.x.O @ p.G.G.x.G.p.m.",
"G.e.Z.G.G.o U.x.p.x.o p.G.p.q.+ G.G.p.x.h.p.m.h.",
"9.(.m.h.U.Q.g.q.g.Y.p.(.6.G.x.!.m.m.x.h.x.h.m.m."
};
