/* XPM */
const static char *playforward[] = {
/* columns rows colors chars-per-pixel */
"24 17 95 2",
"   c black",
".  c #000002",
"X  c gray1",
"o  c #040500",
"O  c #040402",
"+  c #000004",
"@  c #000005",
"#  c #010005",
"$  c #020204",
"%  c #010006",
"&  c #000007",
"*  c #010008",
"=  c #000009",
"-  c #00000B",
";  c #02000B",
":  c #040309",
">  c #04030B",
",  c #00000C",
"<  c #00000E",
"1  c #08070D",
"2  c #43414C",
"3  c #46454D",
"4  c #4D4C51",
"5  c #605F67",
"6  c #67666B",
"7  c #767676",
"8  c #76757B",
"9  c #75747C",
"0  c #78777F",
"q  c #7B7A80",
"w  c #7B7984",
"e  c #878789",
"r  c #8A8A88",
"t  c #9F9F9F",
"y  c #A7A7A5",
"u  c #A4A4A6",
"i  c #A7A6AB",
"p  c #B2B3AB",
"a  c #ABAAB0",
"s  c #B2B2B4",
"d  c #BBBCB7",
"f  c #BCBCBA",
"g  c #BABABC",
"h  c #C0C1BC",
"j  c #C2C3BE",
"k  c none",
"l  c none",
"z  c none",
"x  c none",
"c  c none",
"v  c none",
"b  c none",
"n  c none",
"m  c none",
"M  c none",
"N  c none",
"B  c none",
"V  c none",
"C  c none",
"Z  c none",
"A  c none",
"S  c none",
"D  c none",
"F  c none",
"G  c none",
"H  c none",
"J  c none",
"K  c none",
"L  c none",
"P  c none",
"I  c none",
"U  c none",
"Y  c none",
"T  c none",
"R  c none",
"E  c none",
"W  c none",
"Q  c none",
"!  c none",
"~  c none",
"^  c none",
"/  c none",
"(  c none",
")  c none",
"_  c none",
"`  c none",
"'  c none",
"]  c none",
"[  c none",
"{  c none",
"}  c none",
"|  c none",
" . c none",
".. c none",
"X. c #F2F4E9",
/* pixels */
"L L L L L L L L L l L L  .J ) Q L L L L L L L L ",
"L L L L L L L L A A A l L J ) Q L L L L L L L L ",
"L L L L L L L L n I z Z A l n L L L L L L L L L ",
"L L L L L L L L Q / L n A L I A L L L L L L L L ",
"L L L L L L L L e y .. .J M A n L L L L L L L L ",
"L L L L L L L L , % 7 p Q / J J L L L L L L L L ",
"L L L L L L L L % , , , w t  .n L l N N M A M / ",
"L L L L L L L L o   O % % 1 6 u Q ) ) M M M l M ",
"L L L L L L L L     O       % = r h S Q L L A A ",
"L L L L L L L L %   %     % 4 q d S X./ n M A M ",
"L L L L L L L L     % : 2 q i g J ) F l A A L L ",
"L L L L L L L L   : 3 9 a f } H A z A A L n L L ",
"L L L L L L J J 6 9 s j | F [ z n A A M z L L / ",
"L L L L L L L F d } / n ' n L / / L L A A L F L ",
"L L L L L L L L L L L L L L L L L L L L L L L L ",
"L L L L L L L L L L L L L L L L L L L L L L L L ",
"L L L L L L L L L L L L L L L L L L L L L L L L ",
};
