/* XPM */
const static char *playreverse[] = {
/* columns rows colors chars-per-pixel */
"24 21 95 2",
"   c black",
".  c black",
"X  c black",
"o  c black",
"O  c black",
"+  c black",
"@  c black",
"#  c black",
"$  c black",
"%  c black",
"&  c black",
"*  c black",
"=  c black",
"-  c black",
";  c black",
":  c black",
">  c black",
",  c black",
"<  c black",
"1  c black",
"2  c none",
"3  c none",
"4  c none",
"5  c none",
"6  c none",
"7  c none",
"8  c none",
"9  c none",
"0  c none",
"q  c none",
"w  c none",
"e  c none",
"r  c none",
"t  c none",
"y  c none",
"u  c none",
"i  c none",
"p  c none",
"a  c none",
"s  c none",
"d  c none",
"f  c none",
"g  c none",
"h  c none",
"j  c none",
"k  c none",
"l  c none",
"z  c none",
"x  c none",
"c  c none",
"v  c none",
"b  c none",
"n  c none",
"m  c none",
"M  c none",
"N  c none",
"B  c none",
"V  c none",
"C  c none",
"Z  c none",
"A  c none",
"S  c none",
"D  c none",
"F  c none",
"G  c none",
"H  c none",
"J  c none",
"K  c none",
"L  c none",
"P  c none",
"I  c none",
"U  c none",
"Y  c none",
"T  c none",
"R  c none",
"E  c none",
"W  c none",
"Q  c none",
"!  c none",
"~  c none",
"^  c none",
"/  c none",
"(  c none",
")  c none",
"_  c none",
"`  c none",
"'  c none",
"]  c none",
"[  c none",
"{  c none",
"}  c none",
"|  c none",
" . c none",
".. c none",
"X. c none",
/* pixels */
"L L L L L L L L Z Z Z M _ b L L K P K P K P K P ",
"L L L L L L L L b L L F M _ K L P K P K P K P K ",
"L L L L L L L L W ( K _ L L l I K P K P K P K P ",
"L L L L L L L L W _ K Z b M M Z P K P K P K P K ",
"L L L L L L L L L b l Z ` b I b K P K P K P K P ",
"L L L L L L L L L I L b M Z ( W P K P K P K P K ",
"L L L L L L L L M Z b Z _ ..y e K P K P K P K P ",
"L L L L L L L L W F ( W p 7 = = P K P K P K P K ",
"W M Z M c c l Z M  .t w < = > & K P K P K P K P ",
"I b M K M ( _ K y 6 1 . & . . o P K P K P K P K ",
"Z M Z L W S j r = & . . . o . . K P K P K P K P ",
"M M M M W X.S d q 4 & . . . & . P K P K P K P K ",
"K I M I c M _ L g i 0 2 > & . . K P K P K P K P ",
"K K M I P c c P W | f a 8 3 : . P K P K P K P K ",
"K K K c M I K M c ] b | j s 8 5 K P K P K P K P ",
"I M P M M I K W ( K M P M _ | f P K P K P K P K ",
"K T K P K P K P K P K P K P K P K P K P K P K P ",
"T K P K P K P K P K P K P K P K P K P K P K P K ",
"K P K P K P K P K P K P K P K P K P K P K P K P ",
"P K P K P K P K P K P K P K P K P K P K P K P K ",
"P K P K K P K P K P K P P K P K P K P K K P K P "
};
