/* XPM */
static const char *replay_[] = {
/* columns rows colors chars-per-pixel */
"24 17 196 2",
"   c black",
".  c #000002",
"X  c #020202",
"o  c #000004",
"O  c #010204",
"+  c #000007",
"@  c #020106",
"#  c #030207",
"$  c #060606",
"%  c #000009",
"&  c #020109",
"*  c #030208",
"=  c #020308",
"-  c #00000A",
";  c #01010B",
":  c #040509",
">  c #00000C",
",  c #01000D",
"<  c #02000D",
"1  c #00000E",
"2  c #01000E",
"3  c #01000F",
"4  c #050311",
"5  c #121214",
"6  c #141517",
"7  c #151517",
"8  c #15141A",
"9  c #18181A",
"0  c #20201E",
"q  c #171427",
"w  c #1F1E23",
"e  c #201F24",
"r  c #27262B",
"t  c #2C2D28",
"y  c #29282D",
"u  c #29282E",
"i  c #2A292E",
"p  c #2D2D2F",
"a  c #2B2936",
"s  c #2C2A37",
"d  c #303133",
"f  c #333237",
"g  c #363837",
"h  c #393B38",
"j  c gray24",
"k  c #3F403B",
"l  c #41423D",
"z  c #343146",
"x  c #383641",
"c  c #403F45",
"v  c #444540",
"b  c #444446",
"n  c #464648",
"m  c #48474C",
"M  c #51524D",
"N  c #52554E",
"B  c #444250",
"V  c #494850",
"C  c #4C4B51",
"Z  c #505251",
"A  c #505052",
"S  c #525254",
"D  c #595957",
"F  c #55545A",
"G  c #56555B",
"H  c #5B5B59",
"J  c #5F6064",
"K  c #656563",
"L  c #616065",
"P  c #656764",
"I  c #676475",
"U  c #6A6873",
"Y  c #706E79",
"T  c #757573",
"R  c #7B7C74",
"E  c #7C7D78",
"W  c #777580",
"Q  c #787684",
"!  c #7D7B88",
"~  c #7F7D88",
"^  c #848388",
"/  c #89888E",
"(  c #90908E",
")  c #8B8A92",
"_  c #908E99",
"`  c #949398",
"'  c #9D9E99",
"]  c #A2A1A9",
"[  c #A4A3A8",
"{  c #B0AFB7",
"}  c #B9B8BE",
"|  c #C1C1BF",
" . c #BEBFC3",
".. c none",
"X. c none",
"o. c none",
"O. c none",
"+. c none",
"@. c none",
"#. c none",
"$. c none",
"%. c none",
"&. c none",
"*. c none",
"=. c none",
"-. c none",
";. c none",
":. c none",
">. c none",
",. c none",
"<. c none",
"1. c none",
"2. c none",
"3. c none",
"4. c none",
"5. c none",
"6. c none",
"7. c none",
"8. c none",
"9. c none",
"0. c none",
"q. c none",
"w. c none",
"e. c none",
"r. c none",
"t. c none",
"y. c none",
"u. c none",
"i. c none",
"p. c none",
"a. c none",
"s. c none",
"d. c none",
"f. c none",
"g. c none",
"h. c none",
"j. c none",
"k. c none",
"l. c none",
"z. c none",
"x. c none",
"c. c none",
"v. c none",
"b. c none",
"n. c none",
"m. c none",
"M. c none",
"N. c none",
"B. c none",
"V. c none",
"C. c none",
"Z. c none",
"A. c none",
"S. c none",
"D. c none",
"F. c none",
"G. c none",
"H. c none",
"J. c none",
"K. c none",
"L. c none",
"P. c none",
"I. c none",
"U. c none",
"Y. c none",
"T. c none",
"R. c none",
"E. c none",
"W. c none",
"Q. c none",
"!. c none",
"~. c none",
"^. c none",
"/. c none",
"(. c none",
"). c none",
"_. c none",
"`. c none",
"'. c none",
"]. c none",
"[. c none",
"{. c none",
"}. c none",
"|. c none",
" X c none",
".X c none",
"XX c none",
"oX c none",
"OX c none",
"+X c none",
"@X c none",
"#X c none",
"$X c none",
"%X c none",
"&X c none",
"*X c none",
/* pixels */
";.`.Z.v.].z.j.+X+Xz.z.m.m.F.u.%._.y.y.m.v.T.;.v.",
"Z.y.y.;.;.I.].p.z.T.T.z.m.m.m./.6.y.Z.;.Z.`.y.v.",
"Z.;.y.v._._.+.`.y.6.(.y.y.Z.m.m.Z.;.;.{.;.;.;.0.",
"m.m.Z.v.+.v.].m.Z.j.{.;.T.d.' j j.@X{.;.Z.0.0.Z.",
"m.'.+.`.v.I.}.( C b b n m V a 4 t  Xz.;._.Z.Z.Z.",
"y.6.y.Z.+X| G - < - - . . : + < . k T._.6.y.F.m.",
"6.;.y.6.+XU < 6 I Q Y E ! ! B 4 d |.+Xz.Z.T.%.6.",
"/.I.Z.v.T.p + N (.X.6...m.@XR v z.T w P j.y.T.j.",
"u.0.Z.y.j.6 - Z z.T.T.Z.%.;.@XL.T.H + 9 j.6.;.%X",
"%._.%.F.T.l 5 J } A E +XZ.Z.Z.;.z.M $ 0 T.y._.y.",
"/.L.@./.j.].z.+Xx + F ` ^ / ) _ P 8 - Z m.6.%.F.",
"m.0.F.m.Z.%.+Xh . . . . $ + + < + < z ] j.6.Z.z.",
"1._.%.m.Z.y.T. .q < a i r i i w g L [ }.{.%.m.+X",
"L.0.0.E.y.o.Z.$X{ f H *Xj.F.;.Z.+Xm.y.X.6.y.;.y.",
"m.Z.Z.v.Z.v.Z.v.Z.v.Z.v.Z.v.Z.v.Z.v.Z.v.Z.v.Z.v.",
"y.m.Z.y.v.Z.v.Z.v.Z.v.Z.v.Z.v.Z.v.Z.v.Z.v.Z.v.Z.",
"Z.Z.m.j.Z.v.Z.v.Z.v.Z.v.Z.v.Z.v.Z.v.Z.v.Z.v.Z.v.",
};
