/* XPM */
const static char *sethome[] = {
/* columns rows colors chars-per-pixel */
"24 21 157 2",
"   c black",
".  c #000100",
"X  c #010100",
"o  c #010101",
"O  c #000002",
"+  c #010103",
"@  c #000200",
"#  c #010200",
"$  c #010300",
"%  c #020200",
"&  c #020300",
"*  c #020202",
"=  c #000004",
"-  c #000005",
";  c #010005",
":  c #020204",
">  c #030305",
",  c #030400",
"<  c #040500",
"1  c #050503",
"2  c #050601",
"3  c gray2",
"4  c #040406",
"5  c #050507",
"6  c #000009",
"7  c #040308",
"8  c #91928C",
"9  c #91928D",
"0  c #93948F",
"q  c #94968B",
"w  c #95978C",
"e  c #96978F",
"r  c #9A9C8E",
"t  c #919193",
"y  c #949492",
"u  c #969791",
"i  c #969792",
"p  c #949496",
"a  c #969694",
"s  c #979795",
"d  c #979893",
"f  c #9A9B93",
"g  c #989994",
"h  c #999997",
"j  c #9A9B95",
"k  c gray60",
"l  c #9A9A9A",
"z  c #C0C2B7",
"x  c #C1C1C1",
"c  c #C2C2C0",
"v  c #C3C3C1",
"b  c #C3C3C5",
"n  c #C5C5C5",
"m  c none",
"M  c none",
"N  c none",
"B  c none",
"V  c none",
"C  c none",
"Z  c none",
"A  c none",
"S  c none",
"D  c none",
"F  c none",
"G  c none",
"H  c none",
"J  c none",
"K  c none",
"L  c none",
"P  c none",
"I  c none",
"U  c none",
"Y  c none",
"T  c none",
"R  c none",
"E  c none",
"W  c none",
"Q  c none",
"!  c none",
"~  c none",
"^  c none",
"/  c none",
"(  c none",
")  c none",
"_  c none",
"`  c none",
"'  c none",
"]  c none",
"[  c none",
"{  c none",
"}  c none",
"|  c none",
" . c none",
".. c none",
"X. c none",
"o. c none",
"O. c none",
"+. c none",
"@. c none",
"#. c none",
"$. c none",
"%. c none",
"&. c none",
"*. c none",
"=. c none",
"-. c none",
";. c none",
":. c none",
">. c none",
",. c none",
"<. c none",
"1. c none",
"2. c none",
"3. c none",
"4. c none",
"5. c none",
"6. c none",
"7. c none",
"8. c none",
"9. c none",
"0. c none",
"q. c none",
"w. c none",
"e. c none",
"r. c none",
"t. c none",
"y. c none",
"u. c none",
"i. c none",
"p. c none",
"a. c none",
"s. c none",
"d. c none",
"f. c none",
"g. c none",
"h. c none",
"j. c none",
"k. c none",
"l. c none",
"z. c none",
"x. c #F0F3E2",
"c. c #F0F1E9",
"v. c #F2F3EE",
"b. c #F6F7EF",
"n. c #F0F0F2",
"m. c #F3F3F3",
"M. c #F5F5F3",
"N. c gray96",
"B. c gray97",
"V. c #F5F4FA",
"C. c #F7F8F3",
"Z. c #FBFBF9",
"A. c #FDFDFD",
"S. c #FDFDFF",
"D. c #FEFEFE",
"F. c #FFFEFF",
"G. c gray100",
/* pixels */
"&.G W >.S >.S ) ) ) P i.+.) ^ &.&.S ^ ^ W Y G ) ",
"G >.) W W ) G &.) ) &.o o ) G &.+.&.S S &.&.&.&.",
"W ) m ) 2.&.W G 2.^ s.o o E ) s.s.P &.) G k.&.G ",
"&.W ) &.Y G &.&.S P &.o * G +.w y o &.&.G P G &.",
"S W >.W G +.&.Y k.W p o o o G k 7.* P &.&.&.L L ",
">.) &.G &.Y P &.P j z.: : +.o d r.o k.G &.L L ) ",
"S S W &.Y P x.N y b.7 : 5 o Y * r.o +.S L 2.G &.",
") &.G >.) &.N r b.o b 6 o z * s.o o P &.&.G &.G ",
"&.G ) ) ) &.9 V.o x A.o 7 j.n o s.* +.Q &.L ^ &.",
") 2.R +.E e N.o x Z.A.B.j.N.5.x * q.* &.u.&.&.P ",
"Q P * o o 3 o o o 3 v.j.C.5.o o o * o o o * &.s.",
"[ G o o o o o o : o p f y h o o o o o o * o S +.",
"L +.E R +.g.y A.A.n.k A.h.k 7.6.+.* Y k.R k.^ L ",
"&.&.S 2.S G 8 A.N.w.p o o y q.w.G * +.L s.m [ L ",
"S &.) ) S &.j A.B y.y o : d 5.R P * M ^ 4.L ^ L ",
") G &.) &.&.w y.+.E d o o d E +.+.o &.[ L &.L &.",
"&.G [ L [ P * o o o o : : o o o o o G &.Q [ L &.",
"&.&.L &.L &.+.Y ) ) &.o o +.) ) R +.&.L &.G &.} ",
"G &.G G &.&.} &.+.G +.o o E S &.&.L &.&.G Q &.S ",
") G &.&.L [ L L +.) &.o o &.) +.) L ) L +.&.L ) ",
"[ L &.&.L L Q L Y &.L +.+.L ) } ^ L ) } &.+.L [ "
};
