/* XPM */
const static char *spherecolored[] = {
/* columns rows colors chars-per-pixel */
"20 20 198 2",
"   c #020304",
".  c #00040B",
"X  c #000B03",
"o  c #000C0A",
"O  c #0C0000",
"+  c #0E0B00",
"@  c #060E10",
"#  c #00081B",
"$  c #0D081F",
"%  c #001503",
"&  c #00140A",
"*  c #001C0B",
"=  c #001214",
"-  c #00111C",
";  c #001B11",
":  c #001D1B",
">  c #16000A",
",  c #170E00",
"<  c #1C0000",
"1  c #1F000C",
"2  c #110012",
"3  c #19031A",
"4  c #131300",
"5  c #000221",
"6  c #00002E",
"7  c #080020",
"8  c #000930",
"9  c #0B0930",
"0  c #001623",
"q  c #00152C",
"w  c #001D33",
"e  c #180026",
"r  c #002716",
"t  c #00241A",
"y  c #022123",
"u  c #002820",
"i  c #00263D",
"p  c #240000",
"a  c #230009",
"s  c #2B0002",
"d  c #201B18",
"f  c #320100",
"g  c #31000C",
"h  c #3D0000",
"j  c #310810",
"k  c #24192A",
"l  c #000443",
"z  c #000B40",
"x  c #145B4D",
"c  c #13695E",
"v  c #0C6D66",
"b  c #176963",
"n  c #116F6E",
"m  c #1A6D65",
"M  c #156677",
"N  c #106579",
"B  c #156A73",
"V  c #1F6376",
"C  c #1B7C74",
"Z  c #1D7F7E",
"A  c #205C5D",
"S  c #2C676B",
"D  c #2B7167",
"F  c #297569",
"G  c #2C797F",
"H  c #336A65",
"J  c #3C626D",
"K  c #3D6C76",
"L  c #327D74",
"P  c #307A7B",
"I  c #3C7972",
"U  c #460906",
"Y  c #630000",
"T  c #6E0000",
"R  c #762218",
"E  c #693935",
"W  c #7F2A41",
"Q  c #574E2F",
"!  c #446061",
"~  c #614544",
"^  c #3C7588",
"/  c #427684",
"(  c #2C8073",
")  c #36879A",
"_  c #7987A1",
"`  c #6EA3B5",
"'  c #5B83CB",
"]  c #56BFC5",
"[  c #6992D4",
"{  c #7F9BE5",
"}  c #65CAB8",
"|  c #69D0BB",
" . c #5FC3C5",
".. c #62C5C4",
"X. c #68CFD4",
"o. c #65D1C1",
"O. c #63D9DD",
"+. c #79D3C7",
"@. c #72DED1",
"#. c #77E7CF",
"$. c #77E0DB",
"%. c #70E7ED",
"&. c #8E2D2B",
"*. c #842932",
"=. c #933E3B",
"-. c #AD160F",
";. c #B10A02",
":. c #B4120D",
">. c #A61E20",
",. c #A3271D",
"<. c #B12116",
"1. c #9B2B44",
"2. c #D8231C",
"3. c #C42A20",
"4. c #ED6F3D",
"5. c #D27F5D",
"6. c #C07764",
"7. c #DB7863",
"8. c #E17E45",
"9. c #F66F52",
"0. c #8277BC",
"q. c #8D7CB2",
"w. c #9077B8",
"e. c #CE7D84",
"r. c #BD8F5E",
"t. c #BF8E6E",
"y. c #C1925E",
"u. c #DF8B66",
"i. c #DB886A",
"p. c #D38B7D",
"a. c #FB9C5C",
"s. c #E88A7E",
"d. c #E29166",
"f. c #E9976F",
"g. c #FF8C69",
"h. c #86858D",
"j. c #8784BD",
"k. c #8D90B9",
"l. c #9182B9",
"z. c #9895B4",
"x. c #B58E87",
"c. c #A5BDA7",
"v. c #AEB3AD",
"b. c #8D89C4",
"n. c #8F8DCE",
"m. c #968CC0",
"M. c #9E8ACF",
"N. c #9598C1",
"B. c #96D1B1",
"V. c #87D2D8",
"C. c #93D5D4",
"Z. c #CA9B89",
"A. c #CA96A2",
"S. c #E4948B",
"D. c #FF8D80",
"F. c #F0A387",
"G. c #DCDADB",
"H. c #DCE1E1",
"J. c #D2FDF9",
"K. c #D9F7F9",
"L. c #DDFFFC",
"P. c #E8DDE3",
"I. c #F6E3DF",
"U. c #FFF8DB",
"Y. c #E5E3E8",
"T. c #E5ECEC",
"R. c #EBE3EB",
"E. c #E9EAEF",
"W. c #E6E8F5",
"Q. c #E7F0EF",
"!. c #E8F2EA",
"~. c #ECFFEE",
"^. c #E6F0F1",
"/. c #E0FBFD",
"(. c #ECF3F3",
"). c #EBF4FE",
"_. c #EDFAF3",
"`. c #ECFEFE",
"'. c #F6EEEC",
"]. c #FDE5E3",
"[. c #FFEEEA",
"{. c #F6E4F4",
"}. c #F3EEF4",
"|. c #FDE5FC",
" X c #FBECF2",
".X c #FFEBFB",
"XX c #F5F3E5",
"oX c #F1F2ED",
"OX c #F5F8E5",
"+X c #FEFCEA",
"@X c #F2F4F3",
"#X c #F4F6FF",
"$X c #F5FFF4",
"%X c #F4FDFD",
"&X c #FCF2F3",
"*X c #FDF3FD",
"=X c #FEFBF5",
"-X c #FCFDFE",
/* pixels */
"+X+X+XXX-X%X).-X-X=X~.$X=X X&X=X&X=X@X-X",
"OXOXOX=XG.*X-X*X}.'.%X_.@X-X-XoX*X-X=X-X",
"-X=X%X-X=X].|.|.*X*X.X-X%X%XY.-XP.*X-X-X",
"}.%X`.!.+X+X{.k O   7 5 = J.%X-X-X-XP.-X",
"-X%X-X@XU., o & B.X k.6 J : o L.W.-X-XP.",
"#X-XR.I.f Q r | % c.9 b.# K S : %X-XY.-X",
"-X*X*XU R < } #.4 Z.2 q.m.6 ^ c o %X%X-X",
"*X*Xf &.=.O #.* t.7.A.e w.8 B C I X `.`.",
"*X.XT ,.E o ..; 5.g.p.> M.l M C F & J./.",
"|.f :.<.O C.X.& f.4.i.p 0.{ w v ( x t /.",
"-Xf 2.3.X ..O.* y.a.d.p n.' q C c ( & J.",
"&Xf ;.-.O V.%.* r.8.u.p b.[ i B m D : L.",
"-X[.Y >.W 7  .t F.9.s.g l.z N Z P H J.K.",
"=X].h &.1.1  .r 6.g.e.> N.8 ) B A = `.%X",
"-X X].p *.g $.o.1 S.a z.` 0 V ^ - `.#XW.",
" X=X-X&Xs ~ : +.+ x.3 _ = G / # `.).-X-X",
"-X%X%X-X&X  o ; v.d h.. ! y . %X%X-X-X-X",
"%XE.-X`.W.%X%X  .   &     W.-X%X-X-X-X-X",
"-X-X_.-X-X%X-X%X-X(.%X%X%XQ.-X_.-X-X-X-X",
"%X-X(.T.%X-X(.-XT.-X-XH.-X%XT.-X-X-X-X-X"
};
