/* XPM */
const static char *sphere[] = {
/* columns rows colors chars-per-pixel */
"20 20 42 1",
"  c black",
". c #010101",
"X c #020202",
"o c gray1",
"O c #040404",
"+ c gray2",
"@ c #060606",
"# c gray3",
"$ c #090909",
"% c gray4",
"& c #0C0C0C",
"* c gray5",
"= c #0E0E0E",
"- c #101010",
"; c #131313",
": c gray9",
"> c #1B1B1B",
", c #E6E6E6",
"< c #E7E7E7",
"1 c #E9E9E9",
"2 c #EAEAEA",
"3 c gray92",
"4 c #ECECEC",
"5 c gray93",
"6 c #EEEEEE",
"7 c #EFEFEF",
"8 c gray94",
"9 c #F1F1F1",
"0 c gray95",
"q c #F3F3F3",
"w c #F4F4F4",
"e c gray96",
"r c #F6F6F6",
"t c gray97",
"y c #F8F8F8",
"u c #F9F9F9",
"i c gray98",
"p c #FBFBFB",
"a c gray99",
"s c #FDFDFD",
"d c #FEFEFE",
"f c gray100",
/* pixels */
"dddrdddddtddddddttdd",
"rd00d6tdd6dtdddrdddr",
"dddd0dd00dddrddd2ddd",
"drdddr<>.%..;rdtdd6d",
"tdd6d%..d.d.d.&dddd2",
"dddt+d;d.t&d.dr.dttd",
"dtd;0.6d%d.td.dd.tdd",
"dd.td.d.dtd%r+rdd%td",
"td&td.d.ddd.d.ddd.dt",
"d.0d.dt%tdd.dd%ddt.t",
"t.dd%dd.d2d+dd.ddd.t",
"d%dd.dd%rtd.6d.d0d.d",
"d2.d0+t%dd0+d.d0d.t6",
"td.dd.d.ddr.0&2dd.dd",
"d0d.r&0d.d&dd.dd.ddd",
"drdd+t.d%r.d.rd.dddt",
"dtddt+.+d-t.d..ddddd",
"d6dd0dd......trddddd",
"ddtddddddddddtd6dddd",
"ddr0ddrdtdt<dtrddddd"
};
