/* XPM */
const static char *step-fwd-off[] = {
/* columns rows colors chars-per-pixel */
"24 21 76 1",
"  c #B0B3A0",
". c #B1B4A3",
"X c #B2B5A2",
"o c #B3B6A3",
"O c #B2B5A4",
"+ c #B3B5A7",
"@ c #B3B6A5",
"# c #B4B7A4",
"$ c #B4B7A6",
"% c #B5B8A5",
"& c #B5B8A7",
"* c #B6B9A6",
"= c #B6B9A8",
"- c #B7B9AB",
"; c #B7BAA9",
": c #B8BBA8",
"> c #B8BBAA",
", c #B8BAAC",
"< c #B9BBAD",
"1 c #B9BCA9",
"2 c #B9BCAB",
"3 c #BABDAA",
"4 c #BBBDAF",
"5 c #BCBEB0",
"6 c #BDBFB1",
"7 c #BEC1B0",
"8 c #BEC0B2",
"9 c #BFC1B3",
"0 c #BFC2B1",
"q c #C1C4B3",
"w c #C4C7B6",
"e c #C5C8B7",
"r c #CDD0BF",
"t c #CDCFC1",
"y c #D0D3C2",
"u c #D8DBC8",
"i c #DADDCC",
"p c #DBDECD",
"a c #DDE0CF",
"s c #E0E3D2",
"d c #E2E5D2",
"f c #E3E6D3",
"g c #E4E7D4",
"h c #E5E8D3",
"j c #E5E8D5",
"k c #E5E8D7",
"l c #E6E9D4",
"z c #E6E9D6",
"x c #E7EAD5",
"c c #E7EAD7",
"v c #E6E9D8",
"b c #E7E9DB",
"n c #E7EAD9",
"m c #E8EBD6",
"M c #E9ECD7",
"N c #E9EDD6",
"B c #EAEED7",
"V c #E8EBD8",
"C c #E8EBDA",
"Z c #E9EBDD",
"A c #E9ECD9",
"S c #E9ECDB",
"D c #EAEDD8",
"F c #EAEDDA",
"G c #EBEED9",
"H c #EBEEDB",
"J c #EAEDDC",
"K c #EBEEDD",
"L c #ECEFDA",
"P c #ECEFDC",
"I c #ECEFDE",
"U c #EDF0DD",
"Y c #EDF0DF",
"T c #EEF1DC",
"R c #EEF1DE",
"E c #EFF2DF",
/* pixels */
"VVFcFcVVmmmchmmmFmcFmNBl",
"FFFcFFFFVVcFUcFFFFmmcGhU",
"VFFVVFFVcUFFgcFFcnFFhmmB",
"FFVFcFFVFccFFFcFFFFcUmxm",
"FVcFcVVFFnUcFVFVFcFNcNmm",
"cFFFFVVFFcFFmVFcnBcFFNUc",
"cFFdUVFcF** :@X:*-*#FFmF",
"FFVuVcFVF*F<VnUnn*c-cFnn",
"mFN80inJZ+$-FcFFS.2.UnnF",
"Bmn088wpb,J*dUmmU:S:gnUf",
"mNJ9,<<:e..*BcBmn$-XUFNU",
"cFJ,<58yn-J-FUcFn:c*NnFg",
"Fcn88tsFF-X*ccJcn-*:ccFF",
"cUnraFnnc:F*FFcFJ*n$FFmc",
"UcnFFnmBF*# *--*-.:*cFcF",
"hFNFNNBmFncUFnnFnUncFnFc",
"FmnFmnFmFnFFnFFnFmnFmnFm",
"FFFFFFFFFmmFFmFmFFFFFFFF",
"nFFmFnnFnFFnFmFFnFFmFnnF",
"FmnFmFFmFFmFnFFnFmnFmFFm",
"nFFmFFnFnFmFFFmFnFFmFFnF"
};
