/* XPM */
const static char *step-back-off[] = {
/* columns rows colors chars-per-pixel */
"24 21 75 1",
"  c #B3B6A3",
". c #B6B9A6",
"X c #B7BAA7",
"o c #B7B9AB",
"O c #B7BAA9",
"+ c #B8BBA8",
"@ c #B8BBAA",
"# c #B9BBAD",
"$ c #B9BCA9",
"% c #B9BCAB",
"& c #BABDAA",
"* c #BBBEAB",
"= c #BBBDAF",
"- c #BBBEAD",
"; c #BCBFAC",
": c #BCBFAE",
"> c #BCBEB0",
", c #BDBFB1",
"< c #BDC0AD",
"1 c #BDC0AF",
"2 c #BEC1AE",
"3 c #BEC0B2",
"4 c #BFC1B3",
"5 c #C0C2B4",
"6 c #C1C3B5",
"7 c #C1C4B3",
"8 c #C3C6B5",
"9 c #C6C9B8",
"0 c #C8CBBA",
"q c #CFD1C3",
"w c #CFD2C1",
"e c #D2D5C4",
"r c #DADDCA",
"t c #DBDECD",
"y c #DDE0CF",
"u c #DFE2D1",
"i c #E0E3D2",
"p c #E2E5D2",
"a c #E3E6D3",
"s c #E4E7D4",
"d c #E4E7D6",
"f c #E5E8D3",
"g c #E5E8D5",
"h c #E6E9D4",
"j c #E6E9D6",
"k c #E7EAD5",
"l c #E7EBD4",
"z c #E7EAD7",
"x c #E6E9D8",
"c c #E7EAD9",
"v c #E8EBD6",
"b c #E8ECD5",
"n c #E9ECD7",
"m c #E9EDD6",
"M c #EAEED7",
"N c #E8EBD8",
"B c #E8EBDA",
"V c #E8EADC",
"C c #E9EBDD",
"Z c #E9ECD9",
"A c #E9ECDB",
"S c #EAEDD8",
"D c #EAEDDA",
"F c #EBEED9",
"G c #EBEEDB",
"H c #EAEDDC",
"J c #EBEEDD",
"K c #ECEFDA",
"L c #ECEFDC",
"P c #EDF0DB",
"I c #EDF0DD",
"U c #EEF1DC",
"Y c #EEF1DE",
"T c #EFF2DD",
"R c #EFF2DF",
/* pixels */
"knvSSSkSSkSnnSnnGzzzzzSz",
"SnKfSkvSnSaYnknSzcGGSGGG",
"SkfnScYfSSkkSkYkzGGczcGc",
"cGSYkkSSSdYSGkSSSGzzzSzG",
"zSzkGJpJGGScdGckGczGSGzG",
"SzGJSzYScSSkJSSSSzzIzGzn",
"zScGo$X$- --.X-SzSzGacGz",
"GGzS-S-zcSSk-c-zzGzfyzGm",
"SkSG$$OGvSkGX,XCBct84GGl",
"kYca<c$BSkYd,c>Vy9444czm",
"nkGGO$$SSkGcoXX033444IdG",
"zccG<z:cSkcS-G>de444:Gcc",
"nSkk$$<cdYYkX:OGGuq44GdG",
"nScR$S.ISdcS-d:cSSGuqBGk",
"zcGc+<-@:X,$$$$cmmSGSGcS",
"zScScdIBcGckYcSSznScccSk",
"SSSGcSGccSGcSGcSGcSGcSGc",
"SccSSccSSccSScSccScSSccS",
"SSccGSSGSGGSccSGSSccGSSG",
"cSSGccSccSccSGcSGcSGccSc",
"ScScScSGSGcScScGScScScSG"
};
