/* XPM */
const static char *stepback[] = {
/* columns rows colors chars-per-pixel */
"24 17 139 2",
"   c #1D1F12",
".  c #1E1F19",
"X  c #1D1D1B",
"o  c gray12",
"O  c #1F2018",
"+  c #1F201A",
"@  c #212413",
"#  c #202214",
"$  c #212316",
"%  c #222514",
"&  c #222417",
"*  c #212318",
"=  c #20211B",
"-  c #252719",
";  c #20211C",
":  c #21211F",
">  c #23241C",
",  c #23241F",
"<  c #25271C",
"1  c #26281A",
"2  c #201E29",
"3  c #202020",
"4  c gray13",
"5  c #222220",
"6  c #232321",
"7  c #232323",
"8  c #242520",
"9  c #252621",
"0  c #242422",
"q  c #232325",
"w  c #222126",
"e  c #232227",
"r  c gray14",
"t  c #252525",
"y  c #252527",
"u  c gray15",
"i  c #212028",
"p  c #23212C",
"a  c #22202D",
"s  c #282828",
"d  c #30302E",
"f  c gray21",
"g  c #393A35",
"h  c #383836",
"j  c #3A3B36",
"k  c #363638",
"l  c #36353B",
"z  c #3A3A3C",
"x  c #3F3F3D",
"c  c #40403E",
"v  c #424146",
"b  c #444444",
"n  c #53544C",
"m  c #4E4E50",
"M  c #555553",
"N  c #797A72",
"B  c #7B7C76",
"V  c #898989",
"C  c #A0A390",
"Z  c #ABACA6",
"A  c #B3B4AC",
"S  c #CACBC5",
"D  c #CED0C5",
"F  c #DFE1D3",
"G  c none",
"H  c none",
"J  c none",
"K  c none",
"L  c none",
"P  c none",
"I  c none",
"U  c none",
"Y  c none",
"T  c none",
"R  c none",
"E  c none",
"W  c none",
"Q  c none",
"!  c none",
"~  c none",
"^  c none",
"/  c none",
"(  c none",
")  c none",
"_  c none",
"`  c none",
"'  c none",
"]  c none",
"[  c none",
"{  c none",
"}  c none",
"|  c none",
" . c none",
".. c none",
"X. c none",
"o. c none",
"O. c none",
"+. c none",
"@. c none",
"#. c none",
"$. c none",
"%. c none",
"&. c none",
"*. c none",
"=. c none",
"-. c none",
";. c none",
":. c none",
">. c none",
",. c none",
"<. c none",
"1. c none",
"2. c none",
"3. c none",
"4. c none",
"5. c none",
"6. c none",
"7. c none",
"8. c none",
"9. c none",
"0. c none",
"q. c none",
"w. c none",
"e. c none",
"r. c none",
"t. c none",
"y. c none",
"u. c none",
"i. c none",
"p. c none",
"a. c none",
"s. c none",
"d. c none",
"f. c none",
"g. c none",
"h. c none",
"j. c none",
"k. c none",
"l. c none",
/* pixels */
"+.+.X.$.q.$.$.E [ E / [ [ / [ U $.E / U $.) ) +.",
"+.8.E $.E E X.$.2.2.f.X.X.2.X.g.E X.2.@.8.+.+.$.",
"$.X.$.X.$.+.$.E q./ U [ $./ E $.E 2.@.2.J X.2./ ",
"E $.$.X.g.O.s.2.U w.U t.[ / w.E $.@.E E g.@.$.@.",
"$.E E g.O - - O , X s 3 3 3 + h.$.X.$.$.U q.@.@.",
"[ $.2.X.1 i.X j.$.@.O.f.$ f.$ 2.@.$.@.@.C Y $.@.",
"2.E @.e.w - 0 @.@.$.$.E u O 0 *.@.*.Z m c f.E *.",
"X.$./ X.w O.q X.( [ / q.+ e.0 @.A n x v x X.q.$.",
"$.@.$.X.y - 3 e.O.d.O.l.2 0 p M f d k l f [ ! / ",
"@.Y / 2.+ O.q E ' ' [ / 0 *.+ F V x z l g X.[ $.",
"@.$.' $.q - q X.E / $.@.+ - q *.i.D B b j *.@.O.",
"2.J w.P + f.3 e.@.@.t.@.3 d.3 2.$.E X.S N E t.O.",
"*.$.G q.0 1 0 O 4 0 + 0 a O i p./ @.2.O.O.' / f.",
"*.$.( ! p.X.k.2./ $./ / f.^ *.H @.$.$.2.@.^ ^ / ",
"@.@.$.@.$.@.$.@.$.@.$.@.$.@.$.@.$.@.$.@.$.@.$.@.",
"@.$.@.$.@.$.@.$.@.$.@.$.@.$.@.$.@.$.@.$.@.$.@.$.",
"$.@.$.@.$.@.$.@.$.@.$.@.$.@.$.@.$.@.$.@.$.@.$.@.",
};
