/* XPM */
const static char *stepfwd[] = {
/* columns rows colors chars-per-pixel */
"24 17 139 2",
"   c #1D1F12",
".  c #1E1E1C",
"X  c #1F1F1D",
"o  c gray12",
"O  c #1F2113",
"+  c #1F2018",
"@  c #1F201A",
"#  c #212316",
"$  c #202217",
"%  c #222514",
"&  c #252817",
"*  c #20211B",
"=  c #22231B",
"-  c #242619",
";  c #252719",
":  c #20211C",
">  c #20201E",
",  c #22231E",
"<  c #23241F",
"1  c #25271C",
"2  c #26281A",
"3  c #201E29",
"4  c #202020",
"5  c gray13",
"6  c #222220",
"7  c #232321",
"8  c #222222",
"9  c #232323",
"0  c #242520",
"q  c #252621",
"w  c #242422",
"e  c #252523",
"r  c #262722",
"t  c #232227",
"y  c gray14",
"u  c #252525",
"i  c #242426",
"p  c #252527",
"a  c #222129",
"s  c #242328",
"d  c #23212E",
"f  c #25232E",
"g  c #282828",
"h  c #30302E",
"j  c gray21",
"k  c #393A35",
"l  c #383836",
"z  c #3A3B36",
"x  c #363638",
"c  c #36353B",
"v  c #3A3A3C",
"b  c #3F3F3D",
"n  c #40403E",
"m  c #424146",
"M  c #444444",
"N  c #53544C",
"B  c #4E4E50",
"V  c #565654",
"C  c #797A72",
"Z  c #7B7C76",
"A  c #898989",
"S  c #A0A390",
"D  c #ABACA6",
"F  c #B3B4AC",
"G  c #CACBC5",
"H  c #CED0C5",
"J  c #DFE1D3",
"K  c none",
"L  c none",
"P  c none",
"I  c none",
"U  c none",
"Y  c none",
"T  c none",
"R  c none",
"E  c none",
"W  c none",
"Q  c none",
"!  c none",
"~  c none",
"^  c none",
"/  c none",
"(  c none",
")  c none",
"_  c none",
"`  c none",
"'  c none",
"]  c none",
"[  c none",
"{  c none",
"}  c none",
"|  c none",
" . c none",
".. c none",
"X. c none",
"o. c none",
"O. c none",
"+. c none",
"@. c none",
"#. c none",
"$. c none",
"%. c none",
"&. c none",
"*. c none",
"=. c none",
"-. c none",
";. c none",
":. c none",
">. c none",
",. c none",
"<. c none",
"1. c none",
"2. c none",
"3. c none",
"4. c none",
"5. c none",
"6. c none",
"7. c none",
"8. c none",
"9. c none",
"0. c none",
"q. c none",
"w. c none",
"e. c none",
"r. c none",
"t. c none",
"y. c none",
"u. c none",
"i. c none",
"p. c none",
"a. c none",
"s. c none",
"d. c none",
"f. c none",
"g. c none",
"h. c none",
"j. c none",
"k. c none",
"l. c none",
/* pixels */
";.Q  .;.Q  .P ;.Q ;. .{ {  . .{ E ;.' t.;.+.+.+.",
";.%.%.q.+.;.+.;.d.+.%.$.+.d.6.$.e.' ' Q Q ;.r.;.",
"+.;.Q L 6.;.6.+. .E ' ;.;.E  .{ +.6.;.;.&.&.+.;.",
"%.;.;.d.+.Q %.;.E e. .Q ;.P e.Q 6.u.+.d.Q &.;.Q ",
"%.%.q.L ;.6.+.+.f.0 y y 5 g . r @ # , O d.+.Y ;.",
"%.6.Q S +.;.%.;.&.% u.# 6.u.&.6.k.@ u.1 +.e.;.' ",
"6.Q 6.b B D 6.&.$.0 O u Q  .;.Q ;.y @ s 6.' ' ;.",
";.e.+.b m b N F +.q 6.@ e. .`  .&.o d.s +.e.&.&.",
"Q ' ;.j c x h j V d 0 3 l.o.u.6.6.5 O p Q Q ;.' ",
";. .+.k c v b A J @ $.0 ' ' {  .;.u u.o ;.e.+.6.",
"5.;.5.z M Z H u.5.s 2 5 ;.e.&.' +.0 # y Q ` +.+.",
"+.r.Q C G $.Q 6.&.@ t.@ +.r.&.' d.o u.0 ' w.&.;.",
"6.(  .5.$.6. .' f.a @ f , , 0 y & o 2 @ { ' &.&.",
"' { ) ' 6.;. .' K 6.{ u.( ' ;.Q +.k.5.k.( U e.&.",
"&.;.&.&.;.;.&.&.;.&.' &.;.&.' ;.&.&.;.&.' &.;.&.",
"&.&.;.' &.' &.;.&.&.;.&.;.' &.;.&.;.&.&.;.&.;.' ",
";.;.&.&.' &.' ;.' ;.&.;.&.&.' &.' &.;.;.&.;.&.&.",
};
