/* XPM */
static const char *toEnd_[] = {
/* columns rows colors chars-per-pixel */
"24 17 91 1",
"  c black",
". c #000100",
"X c #010100",
"o c #010101",
"O c #000200",
"+ c #010200",
"@ c #030301",
"# c #010103",
"$ c #000005",
"% c #020106",
"& c #353535",
"* c #363634",
"= c #373833",
"- c #353439",
"; c #363638",
": c #35343A",
"> c #393939",
", c #3B3B39",
"< c #3E3E3C",
"1 c #3E3E3E",
"2 c gray25",
"3 c #424240",
"4 c #424244",
"5 c #4B4B4D",
"6 c #4E4E4E",
"7 c #565656",
"8 c #7B7C74",
"9 c #7D7D7B",
"0 c gray53",
"q c #9FA193",
"w c #AFAFAD",
"e c #B2B3AD",
"r c #C9CAC4",
"t c #CBCCC4",
"y c #D8D9D4",
"u c #DDDED9",
"i c none",
"p c none",
"a c none",
"s c none",
"d c none",
"f c none",
"g c none",
"h c none",
"j c none",
"k c none",
"l c none",
"z c none",
"x c none",
"c c none",
"v c none",
"b c none",
"n c none",
"m c none",
"M c none",
"N c none",
"B c none",
"V c none",
"C c none",
"Z c none",
"A c none",
"S c none",
"D c none",
"F c none",
"G c none",
"H c none",
"J c none",
"K c none",
"L c none",
"P c none",
"I c none",
"U c none",
"Y c none",
"T c none",
"R c none",
"E c none",
"W c none",
"Q c none",
"! c none",
"~ c none",
"^ c none",
"/ c none",
"( c none",
") c none",
"_ c none",
"` c none",
"' c none",
"] c none",
"[ c none",
"{ c none",
"} c none",
/* pixels */
"MLivJGMMMLMhMJfvGGGGGGGG",
"vMvJChGLMGMMvMvMGGGGGGGG",
"MiLMaJGCMLvvvLMLGGGGGGGG",
"JMMMJThQLLJfJLCTGGGGGGGG",
"MMhGGC[ahLhLCSooGGGGGGGG",
"MMMGGWaqLhvMWCooGGGGGGGG",
"TMvCvvL25w`QfJooGGGGGGGG",
"WMLWJhW1216e]TooGGGGGGGG",
"C_vhLvT**;;:7yooGGGGGGGG",
"GvvLLv}>>;40u{ooGGGGGGGG",
"LfvQh)h=29tWCWo$GGGGGGGG",
"hvLCMvp8rVWvcho$GGGGGGGG",
"GLLW_fL'CWLvz)ooGGGGGGGG",
"ThLGvvcWvvCCLhTSGGGGGGGG",
"GGGGGGGGGGGGGGGGGGGGGGGG",
"GGGGGGGGGGGGGGGGGGGGGGGG",
"GGGGGGGGGGGGGGGGGGGGGGGG",
};
