/* XPM */
const static char *twoDImage[] = {
/* columns rows colors chars-per-pixel */
"24 21 256 2",
"   c #020401",
".  c #0A0200",
"X  c #020B00",
"o  c #080607",
"O  c #130003",
"+  c #1D0101",
"@  c #1B030E",
"#  c #190906",
"$  c #001200",
"%  c #041604",
"&  c #191A01",
"*  c #1B1000",
"=  c #000216",
"-  c #0D0013",
";  c #0F001B",
":  c #140017",
">  c #1B0116",
",  c #1A0819",
"<  c #031718",
"1  c #121411",
"2  c #1B171C",
"3  c #230200",
"4  c #2C0001",
"5  c #20080E",
"6  c #260708",
"7  c #330000",
"8  c #3A0002",
"9  c #310F06",
"0  c #27001C",
"q  c #102B00",
"w  c #073A0F",
"e  c #1B3F1B",
"r  c #34220E",
"t  c #282909",
"y  c #000324",
"u  c #02022E",
"i  c #0D062F",
"p  c #050931",
"a  c #160338",
"s  c #041938",
"d  c #171624",
"f  c #240028",
"g  c #2C0031",
"h  c #36003E",
"j  c #330032",
"k  c #2C1132",
"l  c #271428",
"z  c #002928",
"x  c #152522",
"c  c #440002",
"v  c #490000",
"b  c #4B060B",
"n  c #482C1E",
"m  c #3A0041",
"M  c #28005B",
"N  c #2C1950",
"B  c #002F51",
"V  c #062746",
"C  c #0F006C",
"Z  c #1A0A66",
"A  c #27006B",
"S  c #2F0076",
"D  c #410049",
"F  c #451841",
"G  c #451852",
"H  c #54095C",
"J  c #BD5866",
"K  c #DB7F66",
"L  c #CD707A",
"P  c #D87B7A",
"I  c #EE736C",
"U  c #EC7677",
"Y  c #F07B71",
"T  c #F17A7C",
"R  c #BC9279",
"E  c #D28477",
"W  c #C8847B",
"Q  c #E98578",
"!  c #F2F172",
"~  c #F2EB66",
"^  c #E279DE",
"/  c #F87BE7",
"(  c #5F98B3",
")  c #18C1BC",
"_  c #4BCCB6",
"`  c #6DD4BF",
"'  c #74C7AB",
"]  c #64A5CD",
"[  c #5FB8E2",
"{  c #7CABE9",
"}  c #6CBAE5",
"|  c #7CB4E4",
" . c #70A3F6",
".. c #6EBAF6",
"X. c #7CBEFC",
"o. c #79BAF6",
"O. c #1DCDCA",
"+. c #3ED1CB",
"@. c #2CF5EF",
"#. c #5DCBCC",
"$. c #4CD7CC",
"%. c #53D5CD",
"&. c #59D7D4",
"*. c #6DCCC6",
"=. c #7FC0DC",
"-. c #6CDDD7",
";. c #52E0D4",
":. c #73E6D6",
">. c #76E6DE",
",. c #6AC1EE",
"<. c #72C3F0",
"1. c #59EFED",
"2. c #43F6F3",
"3. c #5EF7F4",
"4. c #B48E99",
"5. c #B68B85",
"6. c #8F9EB5",
"7. c #8BBBAF",
"8. c #9EAFB9",
"9. c #94B0BE",
"0. c #9CA3A9",
"q. c #DB8F82",
"w. c #DF868A",
"e. c #DD8491",
"r. c #D6869F",
"t. c #C68D8E",
"y. c #E6878C",
"u. c #E1919C",
"i. c #FF9393",
"p. c #FA858B",
"a. c #CE98B0",
"s. c #FC9AA7",
"d. c #8FD4B5",
"f. c #89CDB4",
"g. c #DAE182",
"h. c #FFFC87",
"j. c #FFFE8A",
"k. c #F6F58A",
"l. c #FFFC95",
"z. c #F6F998",
"x. c #D9F2BB",
"c. c #F5EEA6",
"v. c #E6FAA8",
"b. c #F9F9A6",
"n. c #F5F9AE",
"m. c #FAF8A9",
"M. c #E6E7B4",
"N. c #F2EFBC",
"B. c #EFF5BD",
"V. c #E9FBB4",
"C. c #F4F4B7",
"Z. c #80A3C9",
"A. c #99B6DE",
"S. c #85BCDA",
"D. c #8EA7E0",
"F. c #9EBAEC",
"G. c #80A7F4",
"H. c #9BA9FD",
"J. c #9DBDF0",
"K. c #9095CF",
"L. c #CA86C9",
"P. c #DA84C1",
"I. c #D197CB",
"U. c #E393D8",
"Y. c #D591FE",
"T. c #F88AE7",
"R. c #EF8AF2",
"E. c #FF8EF0",
"W. c #E794FC",
"Q. c #FA95F9",
"!. c #EB90E6",
"~. c #EFAAED",
"^. c #FFA7E4",
"/. c #8DE4DB",
"(. c #86CEF4",
"). c #9FC3F7",
"_. c #91D2FC",
"`. c #89C3EB",
"'. c #A8CAE5",
"]. c #BBC5FF",
"[. c #B7DCFF",
"{. c #9FF9F0",
"}. c #9DF7EB",
"|. c #A1EDEB",
" X c none",
".X c none",
"XX c none",
"oX c none",
"OX c none",
"+X c none",
"@X c none",
"#X c none",
"$X c none",
"%X c none",
"&X c none",
"*X c none",
"=X c none",
"-X c none",
";X c none",
":X c none",
">X c none",
",X c none",
"<X c none",
"1X c none",
"2X c none",
"3X c none",
"4X c none",
"5X c none",
"6X c none",
"7X c none",
"8X c none",
"9X c none",
"0X c none",
"qX c none",
"wX c none",
"eX c none",
"rX c none",
"tX c none",
"yX c none",
"uX c none",
"iX c none",
"pX c none",
"aX c none",
"sX c none",
"dX c none",
"fX c none",
"gX c none",
"hX c none",
"jX c none",
"kX c none",
"lX c none",
"zX c none",
"xX c none",
"cX c none",
"vX c none",
"bX c none",
"nX c none",
"mX c none",
"MX c none",
"NX c none",
"BX c none",
"VX c none",
"CX c none",
"ZX c none",
"AX c none",
"SX c none",
"DX c none",
"FX c none",
"GX c none",
"HX c none",
"JX c none",
"KX c none",
"LX c none",
"PX c none",
"IX c none",
"UX c none",
/* pixels */
"mX%X4X,Xx.1XwX#X6XUXDX@XCX;X2XM.VXFXfXJXCXOXqX2X",
"%XSX4X$XwX;X#XZXPXlXtXUXDX  . VXiXsXHXFXuXIXOX<X",
"8X8XrX0X3XBXmXdXvX[.J.D.K.a N I.r.^.L.pXsXiXIX9X",
"0X3XVXCXuXGXlXF.| o.G.G.].A M W.T.T.T.!.U.I.@XFX",
"3XAXCXuXGXzXF.| o...X. .H.C S W./ / Q.^ !.~.HXtX",
"0X8XDXKXzXJ.| o.<...X.G.H.Z A Y.Q.E.R.R.Q.L.aXuX",
"VXoXlXkX`.} <.,.] B V s i a N a h j H D m g k GX",
"@XUXkXS.} ,...| s = 2 5 5 5 2 l > F f h G g > BX",
"FXJXcXS.,.[ | s = + 4 7 7 4 + O + # 0 > : - O IX",
"NXfXvX( (._.p y @ 7 Q Q K 7 7 R t.5.4.> , 2 . 3X",
"nXLX9.'.] i u : 4 s.T I Y v c q.E W 3 ,     8XrX",
"%XfX8.6.= i ; 6 r.J p.I T i.P P P c 6 < z f.#XCX",
"PXfX0.d - - : a.t.u.y.y.y.L e.e.8 + o < *./.hX&X",
"%X%X2 o o @ O + 3 7 3 4 7 b b 8 O 1 z #.+.%.vXZX",
"mX  1 X   . . * * . r 3 n 6 9 # x < &.2.@.) xXdX",
"6X    X     %   o & . X   t & X % -.3.O.2.1.XXbX",
"8X5X4XqX>XC.b.l.h.j.k.z.v.q e f.:.;.$.&.>.|.kXPX",
"5X5X-X>XB.n.z.j.j.~ ! k.v.% w ' _ $.>.{.xXjXfX6X",
"-X-X-X<X>XB.n.b.k.l.k.g.V.$ $ d.` :.}..XbXjXNX8X",
"=X=X-X5X-X-XN.C.c.m.b.m.V.$ $ *X X X.XgX%X6X0XSX",
"=X=X-XqX8X8X5X:X:XC.M.M.2X1XeX*XjXhXjXZX0X5X3X:X"
};
