/* XPM */
const static char *twoDData[] = {
/* columns rows colors chars-per-pixel */
"24 21 61 1",
"  c #020201",
". c #070801",
"X c #0A0B04",
"o c #0C0C0B",
"O c #0F100A",
"+ c #13140D",
"@ c #131313",
"# c #191A17",
"$ c #1A1A18",
"% c #1F201B",
"& c  gray14",
"* c #54564B",
"= c #57594E",
"- c #5B5C54",
"; c #616358",
": c #6C6D66",
"> c #73756A",
", c #7A7B73",
"< c #80807E",
"1 c #878882",
"2 c #8E8F89",
"3 c #95978C",
"4 c #969791",
"5 c #9A9C95",
"6 c #9C9C9A",
"7 c #A6A7A3",
"8 c #ADAEA8",
"9 c #C0C1BC",
"0 c #C6C8BB",
"q c #CACDBC",
"w c  gray76",
"e c #CDCFC2",
"r c #CFD2C1",
"t c #D1D4C5",
"y c #D3D5CB",
"u c #D7D9CA",
"i c #D9DCCD",
"p c  gray84",
"a c #DBDCD3",
"s c #DDDDDA",
"d c #DFE1D3",
"f c none",
"g c none",
"h c none",
"j c none",
"k c none",
"l c none",
"z c none",
"x c none",
"c c none",
"v c none",
"b c none",
"n c none",
"m c none",
"M c none",
"N c none",
"B c none",
"V c none",
"C c none",
"Z c none",
"A c none",
/* pixels */
"llkggklnfkmmMuuljcjBcZaN",
"llkkgklluVjeqZZMjVjlsjev",
"lhllllkhllvtZ .NavaxZZbN",
"lhzlllkjkfjVZ  AcNvjyyjd",
"hhhhhzlkvjypN..ZxsvNvCAp",
"hhghhllvvvZZA XAAbZAAACA",
"hhgghlmMZ,   $o   oX  $8",
"hhgfglMC-+ o  @@o. .@o s",
"gfMgfiZ; .,bA  AbACAp$ A",
"zlmrlZ*+ 2AwAo AspA7  7v",
"ugvgZ=. :A6bA oAxA1Xo4Ax",
"mBfn>$ 2A9ApwAAxZ5 o1NCj",
"lyA5X jACCCbAAxA8. :ZsyN",
"xZ:  %    @ &   .X:AaCyN",
"vA   o .o  # $@. 3ZyZeiZ",
"NpAZACCANAACA  CZMfZdnZu",
"llllclkctVM0ZXXMlllllllc",
"lkkllkllMqiMB XVllllllll",
"lklkkllkzBBqBVVullllllll",
"llllllllVimVfqglllllllll",
"llllllllhtdVdlMmllllllll"
};
