/* XPM */
const static char *vapor_icon___[] = {
/* columns rows colors chars-per-pixel */
"32 32 193 2",
"   c #337771",
".  c #D25F02",
"X  c #D4670F",
"o  c #DB7800",
"O  c #D3710D",
"+  c #E76507",
"@  c #EE6B07",
"#  c #E96B0F",
"$  c #EF7804",
"%  c #F17701",
"&  c #EB6B14",
"*  c #EA7315",
"=  c #CE7F24",
"-  c #DC7228",
";  c #D07E36",
":  c #D4793E",
">  c #E77528",
",  c #DD7844",
"<  c #D57F49",
"1  c #3CBF23",
"2  c #79CD11",
"3  c #AE9C01",
"4  c #B2A000",
"5  c #A4B703",
"6  c #ACB90C",
"7  c #BBB703",
"8  c #B5A11C",
"9  c #95AE2E",
"0  c #84B835",
"q  c #BBAA3F",
"w  c #A3B83E",
"e  c #B6B93F",
"r  c #D98814",
"t  c #F78D00",
"y  c #F98B00",
"u  c #E59300",
"i  c #E8960B",
"p  c #F29904",
"a  c #E18015",
"s  c #E59417",
"d  c #F39C19",
"f  c #C4A300",
"g  c #C4AF0E",
"h  c #CCBC00",
"j  c #DFB60E",
"k  c #DCBC13",
"l  c #DDBC1A",
"z  c #E3A503",
"x  c #E8A404",
"c  c #F5A000",
"v  c #FAA600",
"b  c #F4AF02",
"n  c #ECB401",
"m  c #EEBE04",
"M  c #F9B700",
"N  c #F6BD00",
"B  c #E1A11A",
"V  c #ECAC19",
"C  c #F0AC1F",
"Z  c #F2B417",
"A  c #C2942E",
"S  c #DE942F",
"D  c #C09535",
"F  c #EB8520",
"G  c #E98A25",
"H  c #E39323",
"J  c #E79F22",
"K  c #E99926",
"L  c #E38C33",
"P  c #E6873B",
"I  c #E58E3B",
"U  c #E99133",
"Y  c #F19F34",
"T  c #CDB624",
"R  c #F5A020",
"E  c #ECBF26",
"W  c #F2AE33",
"Q  c #81CA0B",
"!  c #84CF19",
"~  c #92CA12",
"^  c #96DE1B",
"/  c #A2DF01",
"(  c #BCDC01",
")  c #BCCD14",
"_  c #9BE809",
"`  c #A0E300",
"'  c #A2EA0C",
"]  c #93C138",
"[  c #BDC03D",
"{  c #CFCF01",
"}  c #D4C302",
"|  c #CDD303",
" . c #C2DB02",
".. c #CBDF02",
"X. c #DED100",
"o. c #D9DE02",
"O. c #DBCC1C",
"+. c #C4D712",
"@. c #CCD11A",
"#. c #E4CF01",
"$. c #ECCD04",
"%. c #EECB0B",
"&. c #F4C30B",
"*. c #F6CB08",
"=. c #E4D400",
"-. c #F0D403",
";. c #E1CB13",
":. c #E7CB18",
">. c #F6C91B",
",. c #C3E103",
"<. c #D4E602",
"1. c #D9E202",
"2. c #DFD12B",
"3. c #DDC133",
"4. c #F7C527",
"5. c #EAD33B",
"6. c #F1D33A",
"7. c #DF8842",
"8. c #D5824D",
"9. c #DB804C",
"0. c #DE8552",
"q. c #DA9D54",
"w. c #E3844B",
"e. c #E89D46",
"r. c #E3885E",
"t. c #E59550",
"y. c #EA9352",
"u. c #EB9E56",
"i. c #C6B950",
"p. c #C5B55E",
"a. c #E2A04B",
"s. c #EEB243",
"d. c #F5B74F",
"f. c #E9AA53",
"g. c #EDA25F",
"h. c #E2BE54",
"j. c #D68A69",
"k. c #E99463",
"l. c #EA9A66",
"z. c #E69770",
"x. c #EC9A74",
"c. c #E4997C",
"v. c #DFA870",
"b. c #EBAC6E",
"n. c #E4B661",
"m. c #F7B06C",
"M. c #EDA473",
"N. c #F2B473",
"B. c #96C540",
"V. c #DAC141",
"C. c #D5C845",
"Z. c #DDC55B",
"A. c #F9C54F",
"S. c #EDD544",
"D. c #FBDB52",
"F. c #F7C963",
"G. c #18789C",
"H. c #2F46AF",
"J. c #ECA382",
"K. c #F0AB81",
"L. c #E8BD80",
"P. c #F1B784",
"I. c #EBBA94",
"U. c #EDBBA4",
"Y. c #F3BFAB",
"T. c #EBCA95",
"R. c #F7C19C",
"E. c #DBD1A1",
"W. c #EEC8AA",
"Q. c #FACAA7",
"!. c #F1C0B5",
"~. c #F1CFB6",
"^. c #FACEB2",
"/. c #F5CEB8",
"(. c #F8CBBB",
"). c #F5C9C0",
"_. c #F8CEC7",
"`. c #F7D1C5",
"'. c #FAD4C4",
"]. c #FDD8C6",
"[. c #F5D0C9",
"{. c #F9D5CC",
"}. c #FDDBCD",
"|. c #FAD7D1",
" X c #F6DAD3",
".X c #FBDCD4",
"XX c #FBDED9",
"oX c #FDE0D5",
"OX c #FDE3DD",
"+X c #FDE6E2",
"@X c #FEE9E4",
"#X c #FEEDE8",
"$X c None",
/* pixels */
"$X$X$X$X$X$X$X$X$X$X$X$X$X$X$X$X$X$X$X$X$X$X$X$X$X$X$X$X$X$X$X$X",
"$X$X$X$X$X$X$X$X$X$X$X$X$X$X$X$X$X$X$X$X$X$X$X$X$X$X$X$X$X$X$X$X",
"$X$X$X$X$X$X$X$X$X$X$X$X$X$X$X$X$X$X$X$X$X$X$X$X$X$X$X$X$X$X$X$X",
"$X$X$X$X$X$X$X$X$X$X$X$X$X$X$X$X$X$X$X$X$X$X$X$X$X$X$X$X$X$X$X$X",
"$Xl R $X$X$X$X$X$X$X$X$X$X$X$X$X$X$X$X$X$X$X$X$X$XD f 2 G.$X$X$X",
"$Xg b u 7.$X$X$X$X$X$X$X$X$X$X$X$X$X$X$X$X$X$X$X$X8 h 5   H.1 $X",
"$X$Xk N p s H r t.N.u.l.$X$X$X$X$X$X$X$X$X$X$X$Xp.6 7 3 4 5 $.D.",
"$X$X$Xm i U L L a g.P.M.k.9., < $X$X$X$X$X$X$X$XT ,.( { -.4.F.$X",
"$X$X$X:.n Y Q._.$XI y.J.$X$X$X$X8.0.c.$X[.OX).q.X.o.=.*.d.$X$X$X",
"$X$X$XO.$.W $X]..X{.K.x.$X$X$X$X$X).`.{.$X.X[.e ,...*.d.$X$X$X$X",
"$X$X$XC.#.f.oX@XXX$X$X$X$X$X$X$XOXOX.X`.$X{.E.^ ' 1.A.$X$X$X$X$X",
"$X$X$X$X=.V R.$X$X+XXXXX.X$X$X$X.X{.{.$X$X(.e _ <.6.$X$X$X$X$X$X",
"$X$X$X$X=.V m.].$X$X$X+XOXXX.XXXXXXX+X+X@Xv.| 1.6.$X$X$X$X$X$X$X",
"$X$X$X$X;.s ^.^.+X$X$X$X+X@XXX$X$X$X$X$X$Xi.1.2.$X$X$X$X$X$X$X$X",
"$X$X$X$X5.z `.oX].OX$X$X$X$X+X+X$X$X$X$X$X@.) $X$X$X$X$X$X$X$X$X",
"$X$X$X$XS.n I.OX}.oX@X$X$X$X$X$X$X$X$X$XZ. .w $X$X$X$X$X$X$X$X$X",
"$X$X$X$X$X&.a..XOXoXOX@X$X$X$X$X$X$X$XW.| ~ $X$X$X$X$X$X$X$X$X$X",
"$X$X$X$X$X>.J /.OXOXOX@X@X$X$X$X$X$X Xh.` B.$X$X$X$X$X$X$X$X$X$X",
"$X$X$X$X$X4.b b.@X@X+X@X#X$X$X$X$X$XT.+.! $X$X$X$X$X$X$X$X$X$X$X",
"$X$X$X$X$X$XM K }.@X@X#X$X$X$X$X$X$XV.` 0 $X$X$X$X$X$X$X$X$X$X$X",
"$X$X$X$X$X$XZ c M.XX@X$X$X$X$X$X$XL.( Q $X$X$X$X$X$X$X$X$X$X$X$X",
"$X$X$X$X$X$Xs.v G W.+X$X$X$X$X$X~.3.` ] $X$X$X$X$X$X$X$X$X$X$X$X",
"$X$X$X$X$X$X$Xd t P _.+X$X$X$X$Xn.| ~ $X$X$X$X$X$X$X$X$X$X$X$X$X",
"$X$X$X$X$X$X$Xe.y $ z.{.+X$X$XU.j ( 9 $X$X$X$X$X$X$X$X$X$X$X$X$X",
"$X$X$X$X$X$X$X$XF % & r.!._.U.S =.6 $X$X$X$X$X$X$X$X$X$X$X$X$X$X",
"$X$X$X$X$X$X$X$X$X* @ & , j.; x } q $X$X$X$X$X$X$X$X$X$X$X$X$X$X",
"$X$X$X$X$X$X$X$X$X$X> & + X o u D $X$X$X$X$X$X$X$X$X$X$X$X$X$X$X",
"$X$X$X$X$X$X$X$X$X$X$Xw.- X O = $X$X$X$X$X$X$X$X$X$X$X$X$X$X$X$X",
"$X$X$X$X$X$X$X$X$X$X$X$X$X$X$X$X$X$X$X$X$X$X$X$X$X$X$X$X$X$X$X$X",
"$X$X$X$X$X$X$X$X$X$X$X$X$X$X$X$X$X$X$X$X$X$X$X$X$X$X$X$X$X$X$X$X",
"$X$X$X$X$X$X$X$X$X$X$X$X$X$X$X$X$X$X$X$X$X$X$X$X$X$X$X$X$X$X$X$X",
"$X$X$X$X$X$X$X$X$X$X$X$X$X$X$X$X$X$X$X$X$X$X$X$X$X$X$X$X$X$X$X$X"
};
